<?xml version="1.0" encoding="UTF-8"?><svg version="1.1" id="come_x5F_back_x5F_later" xmlns="http://www.w3.org/2000/svg" xmlns:xlink="http://www.w3.org/1999/xlink" x="0px" y="0px" viewBox="0 0 239.7 250.011" style="enable-background:new 0 0 239.7 250.011;" xml:space="preserve" width="240px" height="251px">
<g>
	
		<linearGradient id="SVGID_1_" gradientUnits="userSpaceOnUse" x1="204.7004" y1="74.5002" x2="204.7004" y2="3.4561" gradientTransform="matrix(1 0 0 -1 0 120.0003)">
		<stop offset="0" style="stop-color:#FFBB22"/>
		<stop offset="1" style="stop-color:#FF9E1D"/>
	</linearGradient>
	<path style="fill:url(#SVGID_1_);" d="M205.7,116L205.7,116c-5.523,0-10-4.477-10-10l-2-60h12c5.523,0,10,4.477,10,10v50
		C215.7,111.523,211.223,116,205.7,116z"/>
	
		<linearGradient id="SVGID_2_" gradientUnits="userSpaceOnUse" x1="208.7004" y1="6.0002" x2="208.7004" y2="73.3632" gradientTransform="matrix(1 0 0 -1 0 120.0003)">
		<stop offset="0" style="stop-color:#FFFFED;stop-opacity:0"/>
		<stop offset="0.4031" style="stop-color:#FFFFF6;stop-opacity:0.0806"/>
		<stop offset="1" style="stop-color:#FFFFFF;stop-opacity:0.2"/>
	</linearGradient>
	<path style="fill:url(#SVGID_2_);" d="M215.7,56v50c0,5.52-4.48,10-10,10c-0.68,0-1.34-0.06-1.98-0.2c4.54-0.94,7.98-4.96,7.98-9.8
		V56c0-5.52-4.48-10-10-10h4C211.22,46,215.7,50.48,215.7,56z"/>
	
		<linearGradient id="SVGID_3_" gradientUnits="userSpaceOnUse" x1="78.7004" y1="74.5002" x2="78.7004" y2="3.4561" gradientTransform="matrix(1 0 0 -1 0 120.0003)">
		<stop offset="0" style="stop-color:#FFBB22"/>
		<stop offset="1" style="stop-color:#FF9E1D"/>
	</linearGradient>
	<path style="fill:url(#SVGID_3_);" d="M77.7,116L77.7,116c5.523,0,10-4.477,10-10l2-60h-12c-5.523,0-10,4.477-10,10v50
		C67.7,111.523,72.177,116,77.7,116z"/>
	
		<linearGradient id="SVGID_4_" gradientUnits="userSpaceOnUse" x1="2.0431" y1="-24.2559" x2="150.7238" y2="-128.2657" gradientTransform="matrix(1 0 0 -1 0 120.0003)">
		<stop offset="0" style="stop-color:#FFBB22"/>
		<stop offset="0.3018" style="stop-color:#FFA620"/>
		<stop offset="0.734" style="stop-color:#FF8E1E"/>
		<stop offset="1" style="stop-color:#FF851D"/>
	</linearGradient>
	<path style="fill:url(#SVGID_4_);" d="M150.42,247c-1.4,2.02-4.46,2.78-6.72,3c0,0-2.8,0.18-4.42-0.92L63.7,197.26l-6-4.1
		L3.48,155.98c-3.64-2.5-4.58-7.48-2.08-11.14c2.5-3.64,7.48-4.56,11.12-2.06l45.18,30.96l6,4.12l84.64,58.02
		C151.98,238.38,152.9,243.36,150.42,247z"/>
	
		<linearGradient id="SVGID_5_" gradientUnits="userSpaceOnUse" x1="141.7004" y1="123.0002" x2="141.7004" y2="-135.2749" gradientTransform="matrix(1 0 0 -1 0 120.0003)">
		<stop offset="0" style="stop-color:#FFE552"/>
		<stop offset="1" style="stop-color:#FF9627"/>
	</linearGradient>
	<path style="fill:url(#SVGID_5_);" d="M156.615,10.858c-1.512-2.496-1.094-5.152,0.714-7.923c0.813-1.247-0.074-2.928-1.563-2.935
		C148.004-0.036,141.7,6.246,141.7,14c0-7.754-6.304-14.035-14.066-14c-1.489,0.007-2.376,1.688-1.563,2.935
		c1.808,2.771,2.226,5.426,0.714,7.923c-1.171,1.933-3.337,3.073-5.591,3.228C102.481,15.372,87.7,30.96,87.7,50v200h108V50
		c0-19.04-14.781-34.628-33.494-35.914C159.951,13.931,157.786,12.79,156.615,10.858z"/>
	
		<linearGradient id="SVGID_6_" gradientUnits="userSpaceOnUse" x1="74.7004" y1="6.0002" x2="74.7004" y2="73.3632" gradientTransform="matrix(1 0 0 -1 0 120.0003)">
		<stop offset="0" style="stop-color:#FFFFED;stop-opacity:0"/>
		<stop offset="0.4031" style="stop-color:#FFFFF6;stop-opacity:0.0806"/>
		<stop offset="1" style="stop-color:#FFFFFF;stop-opacity:0.2"/>
	</linearGradient>
	<path style="fill:url(#SVGID_6_);" d="M67.7,56v50c0,5.52,4.48,10,10,10c0.68,0,1.34-0.06,1.98-0.2c-4.54-0.94-7.98-4.96-7.98-9.8
		V56c0-5.52,4.48-10,10-10h-4C72.18,46,67.7,50.48,67.7,56z"/>
	<circle style="fill:#FFFFFF;" cx="163.7" cy="60" r="10"/>
	
		<linearGradient id="SVGID_7_" gradientUnits="userSpaceOnUse" x1="159.7004" y1="60.0002" x2="167.7004" y2="60.0002" gradientTransform="matrix(1 0 0 -1 0 120.0003)">
		<stop offset="0" style="stop-color:#4C4B4B"/>
		<stop offset="1" style="stop-color:#3A3838"/>
	</linearGradient>
	<path style="fill:url(#SVGID_7_);" d="M167.7,60c0,2.2-1.8,4-4,4s-4-1.8-4-4s1.8-4,4-4c0.42,0,0.82,0.06,1.18,0.18
		c-0.7,0.32-1.18,1.02-1.18,1.82c0,1.1,0.9,2,2,2c0.8,0,1.5-0.48,1.82-1.18C167.64,59.18,167.7,59.58,167.7,60z"/>
	<circle style="fill:#FFFFFF;" cx="119.7" cy="60" r="10"/>
	
		<linearGradient id="SVGID_8_" gradientUnits="userSpaceOnUse" x1="115.7004" y1="60.0002" x2="123.7004" y2="60.0002" gradientTransform="matrix(1 0 0 -1 0 120.0003)">
		<stop offset="0" style="stop-color:#4C4B4B"/>
		<stop offset="1" style="stop-color:#3A3838"/>
	</linearGradient>
	<path style="fill:url(#SVGID_8_);" d="M123.7,60c0,2.2-1.8,4-4,4s-4-1.8-4-4s1.8-4,4-4c0.42,0,0.82,0.06,1.18,0.18
		c-0.7,0.32-1.18,1.02-1.18,1.82c0,1.1,0.9,2,2,2c0.8,0,1.5-0.48,1.82-1.18C123.64,59.18,123.7,59.58,123.7,60z"/>
	
		<linearGradient id="SVGID_9_" gradientUnits="userSpaceOnUse" x1="200.7004" y1="-9.9998" x2="82.329" y2="-9.9998" gradientTransform="matrix(1 0 0 -1 0 120.0003)">
		<stop offset="0" style="stop-color:#F74848"/>
		<stop offset="0.4152" style="stop-color:#F84C4C"/>
		<stop offset="0.8447" style="stop-color:#FD5959"/>
		<stop offset="1" style="stop-color:#FF5F5F"/>
	</linearGradient>
	<path style="fill:url(#SVGID_9_);" d="M197.7,136h-112c-1.105,0-2-0.895-2-2v-8c0-1.105,0.895-2,2-2h112c1.105,0,2,0.895,2,2v8
		C199.7,135.105,198.805,136,197.7,136z"/>
	
		<linearGradient id="SVGID_10_" gradientUnits="userSpaceOnUse" x1="123.7004" y1="17.0002" x2="159.7004" y2="17.0002" gradientTransform="matrix(1 0 0 -1 0 120.0003)">
		<stop offset="0" style="stop-color:#FFBB22"/>
		<stop offset="0.0451" style="stop-color:#FFB721"/>
		<stop offset="0.2704" style="stop-color:#FFA91F"/>
		<stop offset="0.5442" style="stop-color:#FFA11D"/>
		<stop offset="1" style="stop-color:#FF9E1D"/>
	</linearGradient>
	<path style="fill:url(#SVGID_10_);" d="M159.7,98c0,1.42-0.3,2.78-0.82,4c-0.52,1.16-1.22,2.2-2.1,3.08
		c-1.82,1.8-4.32,2.92-7.08,2.92h-16c-4.1,0-7.62-2.48-9.18-6c-0.52-1.22-0.82-2.58-0.82-4H159.7z"/>
	
		<linearGradient id="SVGID_11_" gradientUnits="userSpaceOnUse" x1="115.7044" y1="34.0002" x2="167.6964" y2="34.0002" gradientTransform="matrix(1 0 0 -1 0 120.0003)">
		<stop offset="0" style="stop-color:#FFBB22"/>
		<stop offset="1" style="stop-color:#FF9E1D"/>
	</linearGradient>
	<path style="fill:url(#SVGID_11_);" d="M135.7,74h12c11.044,0,19.996,8.953,19.996,19.996l0,0c0,2.211-1.793,4.004-4.004,4.004
		h-43.984c-2.211,0-4.004-1.793-4.004-4.004l0,0C115.704,82.953,124.656,74,135.7,74z"/>
	
		<linearGradient id="SVGID_12_" gradientUnits="userSpaceOnUse" x1="163.7004" y1="80.1252" x2="163.7004" y2="73.6204" gradientTransform="matrix(1 0 0 -1 0 120.0003)">
		<stop offset="0" style="stop-color:#FFBB22"/>
		<stop offset="1" style="stop-color:#FF9E1D"/>
	</linearGradient>
	<path style="fill:url(#SVGID_12_);" d="M170.7,40h-14c-1.657,0-3,1.343-3,3l0,0c0,1.657,1.343,3,3,3h14c1.657,0,3-1.343,3-3l0,0
		C173.7,41.343,172.357,40,170.7,40z"/>
	
		<linearGradient id="SVGID_13_" gradientUnits="userSpaceOnUse" x1="119.7004" y1="80.2502" x2="119.7004" y2="73.8752" gradientTransform="matrix(1 0 0 -1 0 120.0003)">
		<stop offset="0" style="stop-color:#FFBB22"/>
		<stop offset="1" style="stop-color:#FF9E1D"/>
	</linearGradient>
	<path style="fill:url(#SVGID_13_);" d="M126.7,40h-14c-1.657,0-3,1.343-3,3l0,0c0,1.657,1.343,3,3,3h14c1.657,0,3-1.343,3-3l0,0
		C129.7,41.343,128.357,40,126.7,40z"/>
	
		<linearGradient id="SVGID_14_" gradientUnits="userSpaceOnUse" x1="150.2837" y1="39.0002" x2="133.6171" y2="39.0002" gradientTransform="matrix(1 0 0 -1 0 120.0003)">
		<stop offset="0" style="stop-color:#705340"/>
		<stop offset="1" style="stop-color:#93614C"/>
	</linearGradient>
	<path style="fill:url(#SVGID_14_);" d="M147.7,84h-12c-1.105,0-2-0.895-2-2l0,0c0-2.209,1.791-4,4-4h8c2.209,0,4,1.791,4,4l0,0
		C149.7,83.105,148.805,84,147.7,84z"/>
	
		<linearGradient id="SVGID_15_" gradientUnits="userSpaceOnUse" x1="141.7004" y1="-14.8332" x2="141.7004" y2="-5.7946" gradientTransform="matrix(1 0 0 -1 0 120.0003)">
		<stop offset="0" style="stop-color:#302926;stop-opacity:0.07"/>
		<stop offset="1" style="stop-color:#000000;stop-opacity:0.15"/>
	</linearGradient>
	<path style="fill:url(#SVGID_15_);" d="M147.7,134h-12c-1.105,0-2-0.895-2-2v-4c0-1.105,0.895-2,2-2h12c1.105,0,2,0.895,2,2v4
		C149.7,133.105,148.805,134,147.7,134z"/>
	
		<linearGradient id="SVGID_16_" gradientUnits="userSpaceOnUse" x1="141.7004" y1="21.5002" x2="141.7004" y2="2.4986" gradientTransform="matrix(1 0 0 -1 0 120.0003)">
		<stop offset="0" style="stop-color:#F74848"/>
		<stop offset="0.1553" style="stop-color:#F94E4E"/>
		<stop offset="0.5848" style="stop-color:#FE5B5B"/>
		<stop offset="1" style="stop-color:#FF5F5F"/>
	</linearGradient>
	<path style="fill:url(#SVGID_16_);" d="M141.7,118L141.7,118c-5.523,0-10-4.477-10-10V98h20v10
		C151.7,113.523,147.223,118,141.7,118z"/>
	
		<linearGradient id="SVGID_17_" gradientUnits="userSpaceOnUse" x1="141.7004" y1="10.0002" x2="141.7004" y2="22.0002" gradientTransform="matrix(1 0 0 -1 0 120.0003)">
		<stop offset="0" style="stop-color:#302926;stop-opacity:0.07"/>
		<stop offset="1" style="stop-color:#000000;stop-opacity:0.13"/>
	</linearGradient>
	<path style="fill:url(#SVGID_17_);" d="M141.7,110L141.7,110c-1.105,0-2-0.895-2-2V98h4v10C143.7,109.105,142.805,110,141.7,110z"/>
	<path style="opacity:0.15;enable-background:new    ;" d="M151.7,164c-5.523,0-10,4.477-10,10c0-5.523-4.477-10-10-10
		c-5.523,0-10,4.477-10,10v48c0,11.046,8.954,20,20,20s20-8.954,20-20v-48C161.7,168.477,157.223,164,151.7,164z"/>
	
		<linearGradient id="SVGID_18_" gradientUnits="userSpaceOnUse" x1="141.7004" y1="-39.9998" x2="141.7004" y2="-120.0692" gradientTransform="matrix(1 0 0 -1 0 120.0003)">
		<stop offset="0" style="stop-color:#F9E0AC"/>
		<stop offset="0.3207" style="stop-color:#F9E0A8"/>
		<stop offset="0.6529" style="stop-color:#FAE09B"/>
		<stop offset="0.9894" style="stop-color:#FCE087"/>
		<stop offset="1" style="stop-color:#FCE086"/>
	</linearGradient>
	<path style="fill:url(#SVGID_18_);" d="M151.7,162c-5.523,0-10,4.477-10,10c0-5.523-4.477-10-10-10c-5.523,0-10,4.477-10,10v48
		c0,11.046,8.954,20,20,20s20-8.954,20-20v-48C161.7,166.477,157.223,162,151.7,162z"/>
	
		<linearGradient id="SVGID_19_" gradientUnits="userSpaceOnUse" x1="141.7004" y1="-15.8748" x2="141.7004" y2="-26.449" gradientTransform="matrix(1 0 0 -1 0 120.0003)">
		<stop offset="0" style="stop-color:#F0F0F0"/>
		<stop offset="0.411" style="stop-color:#EDEDED"/>
		<stop offset="0.6581" style="stop-color:#E5E5E5"/>
		<stop offset="0.8612" style="stop-color:#D7D7D7"/>
		<stop offset="1" style="stop-color:#C8C8C8"/>
	</linearGradient>
	<rect x="139.7" y="136" style="fill:url(#SVGID_19_);" width="4" height="10"/>
	
		<linearGradient id="SVGID_20_" gradientUnits="userSpaceOnUse" x1="136.6379" y1="-24.9373" x2="146.5803" y2="-34.8798" gradientTransform="matrix(1 0 0 -1 0 120.0003)">
		<stop offset="0" style="stop-color:#FFFFED"/>
		<stop offset="0.3317" style="stop-color:#F6F6E8"/>
		<stop offset="0.8711" style="stop-color:#DEDEDB"/>
		<stop offset="1" style="stop-color:#D7D7D7"/>
	</linearGradient>
	<circle style="fill:url(#SVGID_20_);" cx="141.7" cy="150" r="6"/>
	
		<linearGradient id="SVGID_21_" gradientUnits="userSpaceOnUse" x1="217.7004" y1="-21.9998" x2="217.7004" y2="-130.0287" gradientTransform="matrix(1 0 0 -1 0 120.0003)">
		<stop offset="0" style="stop-color:#FFBB22"/>
		<stop offset="0.4204" style="stop-color:#FFB220"/>
		<stop offset="1" style="stop-color:#FF9E1D"/>
	</linearGradient>
	<path style="fill:url(#SVGID_21_);" d="M223.7,228L223.7,228c-2.209,0-4-1.791-4-4v-67.497c0-6.571-5.063-12.3-11.631-12.498
		C201.273,143.802,195.7,149.25,195.7,156v94h40c2.209,0,4-1.791,4-4v-2C239.7,235.163,232.537,228,223.7,228z"/>
	
		<linearGradient id="SVGID_22_" gradientUnits="userSpaceOnUse" x1="65.7004" y1="-21.9998" x2="65.7004" y2="-130.0287" gradientTransform="matrix(1 0 0 -1 0 120.0003)">
		<stop offset="0" style="stop-color:#FFBB22"/>
		<stop offset="0.4204" style="stop-color:#FFB220"/>
		<stop offset="1" style="stop-color:#FF9E1D"/>
	</linearGradient>
	<path style="fill:url(#SVGID_22_);" d="M59.7,228L59.7,228c2.209,0,4-1.791,4-4v-67.497c0-6.571,5.063-12.3,11.631-12.498
		C82.127,143.802,87.7,149.25,87.7,156v94h-40c-2.209,0-4-1.791-4-4v-2C43.7,235.163,50.863,228,59.7,228z"/>
	
		<linearGradient id="SVGID_23_" gradientUnits="userSpaceOnUse" x1="195.7004" y1="-32.2472" x2="219.7004" y2="-32.2472" gradientTransform="matrix(1 0 0 -1 0 120.0003)">
		<stop offset="0" style="stop-color:#FFFFED;stop-opacity:0"/>
		<stop offset="0.4031" style="stop-color:#FFFFF6;stop-opacity:0.1209"/>
		<stop offset="1" style="stop-color:#FFFFFF;stop-opacity:0.3"/>
	</linearGradient>
	<path style="fill:url(#SVGID_23_);" d="M219.7,156.5v4c0-6.56-5.06-12.3-11.64-12.5c-6.78-0.2-12.36,5.24-12.36,12v-4
		c0-6.76,5.58-12.2,12.36-12C214.64,144.2,219.7,149.94,219.7,156.5z"/>
	
		<linearGradient id="SVGID_24_" gradientUnits="userSpaceOnUse" x1="88.3671" y1="-32.2472" x2="63.0337" y2="-32.2472" gradientTransform="matrix(1 0 0 -1 0 120.0003)">
		<stop offset="0" style="stop-color:#FFFFED;stop-opacity:0"/>
		<stop offset="0.4031" style="stop-color:#FFFFF6;stop-opacity:0.1209"/>
		<stop offset="1" style="stop-color:#FFFFFF;stop-opacity:0.3"/>
	</linearGradient>
	<path style="fill:url(#SVGID_24_);" d="M63.7,156.5v4c0-6.56,5.06-12.3,11.64-12.5c6.78-0.2,12.36,5.24,12.36,12v-4
		c0-6.76-5.58-12.2-12.36-12C68.76,144.2,63.7,149.94,63.7,156.5z"/>
	
		<linearGradient id="SVGID_25_" gradientUnits="userSpaceOnUse" x1="88.7003" y1="-47.3123" x2="88.7003" y2="-132.0602" gradientTransform="matrix(1 0 0 -1 0 120.0003)">
		<stop offset="0" style="stop-color:#FF9627;stop-opacity:0"/>
		<stop offset="1" style="stop-color:#F26700"/>
	</linearGradient>
	<path style="fill:url(#SVGID_25_);" d="M87.7,166v58c0,2.209-1.791,4-4,4l0,0c-9.973,0-18.052,8.111-18,18.096
		c0.011,2.169,1.83,3.904,4,3.904h30c6.627,0,12-5.373,12-12v-72H87.7z"/>
	
		<linearGradient id="SVGID_26_" gradientUnits="userSpaceOnUse" x1="194.7005" y1="-47.3123" x2="194.7005" y2="-132.0602" gradientTransform="matrix(1 0 0 -1 0 120.0003)">
		<stop offset="0" style="stop-color:#FF9627;stop-opacity:0"/>
		<stop offset="1" style="stop-color:#F26700"/>
	</linearGradient>
	<path style="fill:url(#SVGID_26_);" d="M195.7,166v58c0,2.209,1.791,4,4,4l0,0c9.973,0,18.052,8.111,18,18.096
		c-0.011,2.169-1.83,3.904-4,3.904h-30c-6.627,0-12-5.373-12-12v-72H195.7z"/>
	
		<linearGradient id="SVGID_27_" gradientUnits="userSpaceOnUse" x1="141.7004" y1="22.5002" x2="141.7004" y2="17.8752" gradientTransform="matrix(1 0 0 -1 0 120.0003)">
		<stop offset="0" style="stop-color:#A62900;stop-opacity:0.2"/>
		<stop offset="1" style="stop-color:#DD4526;stop-opacity:0"/>
	</linearGradient>
	<path style="fill:url(#SVGID_27_);" d="M159.7,98c0,1.42-0.3,2.78-0.82,4h-34.36c-0.52-1.22-0.82-2.58-0.82-4H159.7z"/>
	
		<linearGradient id="SVGID_28_" gradientUnits="userSpaceOnUse" x1="141.7004" y1="-15.4998" x2="141.7004" y2="-20.1248" gradientTransform="matrix(1 0 0 -1 0 120.0003)">
		<stop offset="0" style="stop-color:#A62900;stop-opacity:0.25"/>
		<stop offset="1" style="stop-color:#812726;stop-opacity:0"/>
	</linearGradient>
	<rect x="87.7" y="136" style="fill:url(#SVGID_28_);" width="108" height="4"/>
	
		<linearGradient id="SVGID_29_" gradientUnits="userSpaceOnUse" x1="64.8254" y1="-65.4998" x2="57.8076" y2="-65.4998" gradientTransform="matrix(1 0 0 -1 0 120.0003)">
		<stop offset="0" style="stop-color:#A62900;stop-opacity:0.15"/>
		<stop offset="1" style="stop-color:#812726;stop-opacity:0"/>
	</linearGradient>
	<polygon style="fill:url(#SVGID_29_);" points="63.7,177.86 63.7,197.26 57.7,193.16 57.7,173.74 	"/>
</g>
</svg>