<svg width="2281" height="3166" viewBox="0 0 2281 3166" fill="none" xmlns="http://www.w3.org/2000/svg">
<rect x="20" y="883" width="2261" height="2283" fill="#FAEACD"/>
<path d="M1966.59 2381.79C1906.16 2381.79 1857.17 2370.25 1857.17 2356C1857.17 2341.76 1906.16 2330.21 1966.59 2330.21C2027.01 2330.21 2076 2341.76 2076 2356C2076 2370.25 2027.01 2381.79 1966.59 2381.79Z" fill="#5B2448"/>
<path d="M936.922 2390C842.525 2390 766.001 2374.78 766.001 2356C766.001 2337.22 842.525 2322 936.922 2322C1031.32 2322 1107.84 2337.22 1107.84 2356C1107.84 2374.78 1031.32 2390 936.922 2390Z" fill="#5B2448"/>
<path d="M240.739 270L156.528 191.8L479.575 59.5713L240.739 270Z" fill="#5B2448"/>
<path d="M479.575 59.5713L0 256.73L107.524 123.08L479.575 59.5713Z" fill="#3FB1B5"/>
<path d="M141.4 117.485L197.303 48L479.575 59.5712L141.4 117.485Z" fill="#3FB1B5"/>
<path d="M479.143 56.9585L139.931 112.475L140.782 117.633L479.994 62.1172L479.143 56.9585Z" fill="#6CE0DC"/>
<path d="M882.271 282.924C868.043 342.167 805.392 360.762 732.405 352.978C659.418 345.194 571.566 358.374 550.978 469.99C528.047 594.272 609.771 626.384 527.073 729.52C458.185 815.433 484.233 922.168 615.609 958.169C615.609 958.169 783.013 844.33 807.343 704.222C831.673 564.114 953.289 525.236 953.289 525.236L956.23 298.491L882.271 282.924Z" fill="#5B2448"/>
<path d="M1090.5 354.924C1079.05 362.727 1066.18 364.653 1043.79 359.788C1039.9 372.437 1036.98 437.626 1053.52 483.356C1036.01 513.515 928.961 532.978 889.062 470.708C927.988 404.546 936.937 336.077 932.858 319.897L885.836 258.473C884.599 257.072 883.402 255.632 882.264 254.172C876.297 246.569 871.513 238.107 868.075 229.074C847.955 176.485 873.432 108.227 940.902 86.6545C941.797 86.3819 942.702 86.0996 943.607 85.827C943.665 85.8077 943.733 85.7884 943.791 85.769C957.858 81.4377 972.56 79.5359 987.266 80.1452C1020.29 81.8281 1049.56 98.927 1069.34 125.126C1077.42 136.107 1084.33 147.897 1089.97 160.308C1091.48 163.558 1092.84 166.837 1094.11 170.155C1094.21 170.378 1094.28 170.603 1094.37 170.826C1094.38 170.87 1094.4 170.913 1094.42 170.953V170.962C1094.42 170.972 1094.43 170.972 1094.43 170.982C1094.47 171.07 1094.5 171.167 1094.54 171.254C1094.54 171.275 1094.55 171.295 1094.56 171.313C1094.57 171.342 1094.59 171.371 1094.6 171.4C1094.63 171.516 1094.67 171.629 1094.72 171.74C1094.73 171.78 1094.75 171.838 1094.76 171.877C1095.44 173.657 1097.57 179.077 1100.34 186.687C1100.75 187.807 1101.17 188.984 1101.59 190.191C1101.94 191.164 1102.29 192.165 1102.65 193.187C1102.69 193.314 1102.74 193.44 1102.78 193.567C1107.72 207.744 1113.63 226.648 1116.78 244.01C1122.62 276.113 1118.61 335.775 1090.5 354.924Z" fill="#F4ADA2"/>
<path d="M927.988 246.923C915.782 215.216 1052.91 193.368 1052.91 193.368L1092.54 172.313L1094.53 171.253C1094.54 171.274 1094.54 171.294 1094.55 171.312C1094.56 171.341 1094.58 171.37 1094.59 171.399C1094.63 171.515 1094.67 171.628 1094.72 171.739C1094.73 171.779 1094.75 171.837 1094.76 171.875C1095.44 173.656 1097.57 179.076 1100.33 186.686C1100.74 187.806 1015.57 238.167 927.988 246.923Z" fill="#9B3C82"/>
<path opacity="0.52" d="M1000.6 314.267C1015.16 314.267 1026.97 302.467 1026.97 287.91C1026.97 273.354 1015.16 261.554 1000.6 261.554C986.045 261.554 974.243 273.354 974.243 287.91C974.243 302.467 986.045 314.267 1000.6 314.267Z" fill="#E57281"/>
<path d="M1006.11 213.083C993.864 220.918 989.601 234.36 994.119 239.749C998.637 245.138 1011.88 242.554 1022.47 232.599C1033.36 222.365 1038.77 210.607 1034.46 205.932C1030 201.084 1018.26 205.307 1006.11 213.083Z" fill="#5B2448"/>
<path d="M1102.78 193.566C1100.94 194.386 1099.05 195.059 1097.11 195.58C1083.75 199.2 1071.86 197.759 1070.25 192.097C1068.59 186.22 1077.5 177.813 1089.53 172.005C1091 171.27 1092.53 170.651 1094.11 170.153C1094.2 170.377 1094.28 170.601 1094.37 170.824C1094.38 170.871 1094.39 170.917 1094.42 170.96L1094.53 171.252C1094.54 171.273 1094.54 171.293 1094.55 171.311C1094.56 171.34 1094.58 171.369 1094.59 171.398C1094.63 171.514 1094.67 171.628 1094.72 171.739C1094.73 171.778 1094.75 171.836 1094.76 171.875C1095.44 173.655 1097.57 179.075 1100.33 186.686C1101.06 188.71 1101.84 190.89 1102.65 193.185C1102.69 193.313 1102.74 193.443 1102.78 193.566Z" fill="#5B2448"/>
<path d="M1082.39 292.76C1081.23 294.403 1079.72 295.77 1077.97 296.767C1076.28 297.745 1074.44 298.451 1072.53 298.858C1068.66 299.728 1064.62 299.465 1060.9 298.099C1059.05 297.366 1057.31 296.373 1055.74 295.152C1054.18 293.915 1052.83 292.444 1051.72 290.793C1049.44 287.519 1048.46 283.521 1048.95 279.565C1049.03 279.007 1049.31 278.495 1049.73 278.119C1050.15 277.743 1050.69 277.526 1051.25 277.506C1051.82 277.486 1052.37 277.665 1052.81 278.01C1053.26 278.356 1053.57 278.847 1053.69 279.397L1053.73 279.562C1054.3 282.187 1055.52 284.626 1057.28 286.656C1058.14 287.641 1059.12 288.515 1060.19 289.257C1061.25 290.016 1062.39 290.636 1063.61 291.101C1066.1 292 1068.76 292.33 1071.4 292.067C1074.06 291.881 1076.64 291.009 1078.87 289.534L1079.02 289.427C1079.48 289.106 1080.04 288.958 1080.61 289.007C1081.17 289.055 1081.69 289.299 1082.09 289.694C1082.49 290.09 1082.74 290.613 1082.8 291.173C1082.85 291.733 1082.71 292.294 1082.39 292.76V292.76Z" fill="#9B3C82"/>
<path d="M1016.63 247.383C1022.07 244.39 1035.27 237.509 1046.24 226.971C1046.6 226.619 1047.04 226.343 1047.51 226.158C1047.98 225.974 1048.49 225.885 1048.99 225.898C1049.5 225.91 1050 226.022 1050.46 226.229C1050.93 226.435 1051.35 226.732 1051.69 227.101C1055.48 231.094 1060.46 238.625 1052.06 244.847C1041.75 252.492 1021.99 254.524 1016.43 250.72C1016.15 250.526 1015.94 250.265 1015.79 249.964C1015.65 249.662 1015.58 249.329 1015.6 248.995C1015.62 248.661 1015.73 248.338 1015.91 248.056C1016.09 247.774 1016.34 247.543 1016.63 247.383V247.383Z" fill="#5B2448"/>
<path d="M1102.35 206.517C1096.98 208.519 1089.27 209.99 1077.68 211.849C1077.18 211.962 1076.7 212.177 1076.29 212.481C1075.88 212.785 1075.53 213.17 1075.28 213.614C1075.02 214.057 1074.86 214.549 1074.8 215.057C1074.74 215.566 1074.79 216.082 1074.94 216.571C1076.38 221.885 1079.95 229.307 1089.9 226.133C1099.85 222.958 1105.19 214.814 1105.31 208.076C1105.33 206.628 1103.71 206.009 1102.35 206.517Z" fill="#5B2448"/>
<path d="M909.001 285.337C908.866 285.395 908.718 285.444 908.571 285.502C908.084 285.677 907.549 285.862 906.961 286.039C906.601 286.156 906.222 286.273 905.832 286.39C874.507 295.727 726.051 323.966 712.397 284.029C701.351 251.724 797.081 220.746 843.072 207.698C845.154 207.114 847.127 206.563 848.989 206.044C850.673 205.577 852.258 205.149 853.767 204.74C863.187 202.201 869.425 200.712 870.37 200.478H870.399C870.426 200.465 870.455 200.459 870.485 200.459C871.177 200.255 874.913 199.233 876.519 198.786C876.977 198.659 877.271 198.582 877.271 198.582L905.902 276.876C905.902 276.884 905.906 276.891 905.911 276.897L909.001 285.337Z" fill="#F94F46"/>
<path d="M909.001 285.337C908.866 285.395 908.719 285.445 908.571 285.503C887.657 280.978 849.918 249.522 843.077 207.692C845.16 207.108 847.132 206.557 848.994 206.038C850.678 205.571 852.264 205.143 853.772 204.734C863.193 202.195 869.43 200.706 870.375 200.472H870.404C870.431 200.459 870.461 200.453 870.491 200.453C874.637 216.138 886.645 254.628 905.905 276.868C905.906 276.876 905.909 276.883 905.915 276.889L909.001 285.337Z" fill="#5B2448"/>
<path d="M1094.42 170.954C1094.4 170.973 1094.38 170.983 1094.38 170.992C1094.36 170.992 1094.36 171.002 1094.36 171.002C1093.75 171.616 1093.09 172.238 1092.39 172.87C1080.02 184.147 1053.93 199.472 1018.48 214.796C1017.54 215.205 1016.58 215.614 1015.63 216.021C1015.36 216.148 1015.08 216.265 1014.8 216.382C972.999 233.921 929.715 247.701 885.464 257.558C884.453 256.41 883.372 255.292 882.263 254.172C876.296 246.569 871.512 238.107 868.075 229.074C847.955 176.485 873.432 108.227 940.902 86.6545C941.797 86.3819 942.702 86.0996 943.607 85.827C943.665 85.8077 943.733 85.7884 943.791 85.769C957.858 81.4377 972.56 79.5359 987.266 80.1452C1020.29 81.8281 1049.56 98.927 1069.34 125.126C1077.42 136.107 1084.33 147.897 1089.97 160.308C1091.48 163.558 1092.84 166.837 1094.11 170.155C1094.21 170.378 1094.28 170.603 1094.37 170.826C1094.38 170.87 1094.4 170.913 1094.42 170.954V170.954Z" fill="#F94F46"/>
<path d="M939.435 252.657C939.435 252.657 911.281 232.65 884.251 246.775C858.755 260.098 868.411 300.809 919.353 317.029C929.728 320.06 940.527 321.381 951.326 320.942L939.435 252.657Z" fill="#F4ADA2"/>
<path d="M1046.69 397.986C1052.55 383.141 1046.87 366.872 1043.79 359.789C1032.81 355.63 1034.97 356.667 1022.38 351.032C1016 348.176 1008.37 342.405 1003.52 347.688C997.626 354.108 1004.19 384.983 1046.69 397.986Z" fill="#5B2448"/>
<path d="M946.007 326.043C939.852 326.024 933.708 325.51 927.635 324.506C911.899 321.887 899.312 316.106 891.234 307.789C890.738 307.278 890.466 306.591 890.476 305.88C890.487 305.168 890.78 304.49 891.291 303.994C891.801 303.499 892.488 303.226 893.2 303.237C893.912 303.247 894.59 303.54 895.086 304.051C912.806 322.296 948.418 320.642 948.771 320.624C949.479 320.59 950.172 320.839 950.698 321.314C951.224 321.79 951.54 322.455 951.577 323.163C951.614 323.871 951.37 324.565 950.897 325.093C950.424 325.621 949.761 325.941 949.053 325.982C948.922 325.989 947.832 326.043 946.007 326.043Z" fill="#9B3C82"/>
<path d="M936.775 290.744C936.356 290.745 935.942 290.647 935.568 290.459C935.193 290.271 934.868 289.997 934.619 289.66C916.606 265.41 893.962 270.901 893.004 271.148C892.316 271.328 891.584 271.227 890.97 270.868C890.355 270.509 889.909 269.92 889.728 269.232C889.548 268.543 889.648 267.812 890.008 267.197C890.367 266.583 890.956 266.137 891.644 265.956C892.736 265.668 918.681 259.2 938.928 286.461C939.224 286.859 939.404 287.332 939.447 287.827C939.49 288.322 939.395 288.819 939.173 289.263C938.95 289.707 938.609 290.081 938.186 290.342C937.764 290.603 937.277 290.743 936.781 290.744H936.775Z" fill="#9B3C82"/>
<path d="M1081.75 264.639C1081.25 264.64 1080.77 264.47 1080.39 264.157C1080 263.845 1079.74 263.41 1079.64 262.925C1079.54 262.44 1079.61 261.936 1079.84 261.497C1080.07 261.059 1080.44 260.713 1080.9 260.519C1085.46 258.567 1090.7 252.147 1090.57 248.672C1090.54 247.999 1090.34 247.313 1089.01 246.856C1082.08 244.576 1076.33 239.674 1072.97 233.2C1072.75 232.681 1072.74 232.095 1072.94 231.569C1073.15 231.042 1073.55 230.617 1074.07 230.387C1074.58 230.157 1075.17 230.14 1075.7 230.339C1076.23 230.538 1076.66 230.938 1076.89 231.452C1079.79 236.811 1084.62 240.867 1090.4 242.797C1091.66 243.144 1092.78 243.887 1093.58 244.917C1094.38 245.947 1094.83 247.209 1094.86 248.514C1095.07 254.184 1088.29 262.023 1082.59 264.465C1082.33 264.579 1082.04 264.639 1081.75 264.639V264.639Z" fill="#5B2448"/>
<path d="M1094.38 170.992C1094.36 170.992 1094.36 171.002 1094.36 171.002C1093.75 171.616 1093.09 172.239 1092.39 172.871C1080.02 184.147 1053.93 199.472 1018.48 214.796C1013.71 204.307 1003.98 169.047 1039.9 151.572C1075.21 134.414 1092.94 168.376 1094.38 170.992Z" fill="#5B2448"/>
<path d="M1346.09 498.479C1328.93 458.059 1334.97 399.922 1359.1 379.248C1365.91 373.41 1385.37 367.324 1400.94 397.735C1420.06 435.056 1424.93 520.434 1345.47 676.978C1345.47 676.978 1386.56 593.779 1346.09 498.479Z" fill="#5B2448"/>
<path d="M610.256 626.176C596.362 527.367 558.187 481.411 526.074 477.519C467.016 470.362 439.545 650.489 683.279 775.626C683.279 775.626 625.336 733.411 610.256 626.176Z" fill="#5B2448"/>
<path d="M2052.96 677.951C2052.96 677.951 2056.85 706.168 1944.94 704.222C1944.94 704.222 1982.89 721.736 1925.47 725.627C1868.06 729.519 1843.73 712.979 1793.12 712.006C1742.52 711.032 1589.73 703.249 1516.75 655.573C1423.32 678.925 1344.5 676.979 1344.5 676.979L1337.83 469.336L1338.82 469.589C1342.8 470.582 1358.45 474.406 1378.96 478.336C1380.59 478.647 1382.24 478.959 1383.93 479.271C1407.21 483.581 1435.67 487.765 1460.31 488.222C1512.86 489.194 1592.52 488.183 1708.46 546.6C1832.05 608.871 1944.94 640.006 2004.31 643.897C2041.33 646.321 2040.31 650.708 2042.26 655.573C2052.96 655.573 2083.13 663.357 2052.96 677.951Z" fill="#F4ADA2"/>
<path d="M1529.88 669.445C1529.41 669.445 1528.95 669.321 1528.54 669.086C1503.32 654.538 1476.83 632.058 1476.57 631.831C1476.29 631.604 1476.07 631.325 1475.9 631.01C1475.74 630.696 1475.64 630.351 1475.61 629.998C1475.58 629.644 1475.62 629.287 1475.73 628.949C1475.83 628.611 1476.01 628.298 1476.24 628.027C1476.47 627.757 1476.75 627.535 1477.07 627.374C1477.38 627.214 1477.73 627.117 1478.08 627.091C1478.44 627.065 1478.79 627.11 1479.13 627.222C1479.47 627.334 1479.78 627.513 1480.05 627.746C1480.31 627.968 1506.43 650.138 1531.23 664.438C1531.74 664.734 1532.14 665.19 1532.36 665.735C1532.59 666.281 1532.63 666.886 1532.48 667.457C1532.32 668.027 1531.99 668.532 1531.52 668.891C1531.05 669.25 1530.47 669.445 1529.88 669.445V669.445Z" fill="#9B3C82"/>
<path d="M1958.07 709.338C1957.67 709.338 1957.27 709.246 1956.91 709.07C1946.27 703.936 1935.35 701.385 1923.78 698.684C1905.48 694.409 1886.56 689.991 1868.74 674.632C1868.47 674.402 1868.25 674.122 1868.09 673.807C1867.94 673.492 1867.84 673.15 1867.81 672.798C1867.79 672.447 1867.83 672.094 1867.94 671.759C1868.05 671.425 1868.23 671.115 1868.46 670.848C1868.69 670.581 1868.97 670.362 1869.28 670.204C1869.6 670.045 1869.94 669.95 1870.29 669.924C1870.64 669.898 1871 669.942 1871.33 670.052C1871.67 670.163 1871.98 670.338 1872.24 670.568C1889.06 685.064 1907.33 689.33 1925 693.458C1936.34 696.107 1948.07 698.846 1959.25 704.238C1959.79 704.502 1960.24 704.944 1960.5 705.492C1960.76 706.04 1960.83 706.661 1960.7 707.254C1960.56 707.847 1960.23 708.376 1959.75 708.754C1959.28 709.133 1958.69 709.339 1958.08 709.338H1958.07Z" fill="#9B3C82"/>
<path d="M2056.37 681.125C2055.87 681.125 2055.38 680.986 2054.95 680.724C2054.53 680.462 2054.19 680.087 2053.96 679.64C2048.68 669.07 2027.35 670.401 2002.65 671.942C1982.4 673.209 1959.45 674.64 1938.08 670.369C1937.41 670.209 1936.82 669.792 1936.44 669.207C1936.07 668.622 1935.93 667.913 1936.07 667.231C1936.2 666.549 1936.6 665.947 1937.17 665.551C1937.74 665.155 1938.45 664.997 1939.13 665.11C1959.81 669.245 1982.39 667.835 2002.32 666.59C2030.01 664.864 2051.89 663.496 2058.76 677.244C2058.97 677.653 2059.06 678.108 2059.04 678.564C2059.02 679.021 2058.89 679.466 2058.65 679.855C2058.41 680.244 2058.07 680.565 2057.67 680.788C2057.27 681.011 2056.82 681.128 2056.36 681.128L2056.37 681.125Z" fill="#9B3C82"/>
<path d="M2004.55 656.538C1984.73 656.538 1963.57 655.801 1948.96 653.854C1948.26 653.76 1947.62 653.39 1947.18 652.824C1946.75 652.259 1946.56 651.545 1946.66 650.84C1946.75 650.134 1947.12 649.495 1947.69 649.063C1948.25 648.63 1948.97 648.44 1949.67 648.534C1978.37 652.361 2032.7 651.448 2051.22 649.5C2051.93 649.426 2052.64 649.635 2053.19 650.083C2053.74 650.531 2054.1 651.18 2054.17 651.888C2054.24 652.595 2054.04 653.304 2053.59 653.857C2053.14 654.41 2052.49 654.763 2051.78 654.838C2042.46 655.817 2024.16 656.538 2004.55 656.538Z" fill="#9B3C82"/>
<path d="M683.277 775.628C616.577 837.519 514.396 898.816 431.677 812.226C348.958 725.635 293.489 585.519 259.429 446.383C227.441 315.732 242.32 229.877 252.334 200.454C262.348 171.031 274.028 171.032 277.179 197.565C280.606 226.412 282.784 235.247 282.784 235.247L378.214 150.667C378.214 150.667 377.912 161.973 372.316 191.464C373.712 224.253 371.586 252.586 384.968 305.301C401.509 370.491 495.91 505.734 536.778 603.032C536.778 603.032 544.563 595.112 556.406 584.585C575.354 567.752 604.685 544.274 629.228 535.897C669.128 522.275 683.277 775.628 683.277 775.628Z" fill="#F4ADA2"/>
<path d="M308.57 305.554C307.926 305.553 307.304 305.321 306.817 304.9C306.33 304.479 306.011 303.897 305.917 303.26C303.74 288.458 299.529 280.007 295.075 271.063C289.802 260.483 283.825 248.49 280.614 224.415C280.567 224.066 280.59 223.711 280.681 223.37C280.771 223.03 280.928 222.71 281.142 222.43C281.356 222.15 281.624 221.915 281.929 221.739C282.233 221.562 282.57 221.447 282.92 221.4C283.269 221.354 283.624 221.377 283.965 221.467C284.305 221.558 284.625 221.715 284.905 221.929C285.185 222.143 285.42 222.41 285.597 222.715C285.773 223.02 285.888 223.357 285.935 223.706C289.028 246.895 294.544 257.965 299.879 268.675C304.534 278.012 308.93 286.838 311.233 302.482C311.289 302.864 311.263 303.253 311.155 303.624C311.047 303.994 310.861 304.337 310.608 304.629C310.356 304.921 310.043 305.155 309.692 305.315C309.341 305.475 308.96 305.558 308.574 305.557L308.57 305.554Z" fill="#9B3C82"/>
<path d="M345.022 233.295C344.548 233.296 344.074 233.255 343.607 233.173C339.24 232.4 334.389 227.95 336.07 211.144C339.687 174.982 338.217 167.856 338.11 167.405C337.912 166.73 337.988 166.004 338.32 165.384C338.652 164.764 339.214 164.299 339.886 164.09C340.557 163.88 341.284 163.942 341.91 164.263C342.536 164.584 343.011 165.138 343.233 165.806C343.588 166.871 345.165 174.091 341.408 211.677C340.272 223.032 342.386 227.508 344.54 227.883C350.36 228.905 366.384 211.693 373.117 185.441C373.294 184.751 373.738 184.16 374.351 183.798C374.963 183.436 375.695 183.332 376.384 183.508C377.074 183.685 377.665 184.129 378.027 184.741C378.39 185.354 378.494 186.085 378.317 186.775C371.969 211.548 356.199 233.295 345.022 233.295Z" fill="#9B3C82"/>
<path d="M316.517 249.263C316.038 249.264 315.56 249.22 315.09 249.131C311.638 248.475 307.407 245.304 306.865 233.917C305.087 196.598 303.989 189.53 303.977 189.463C303.915 189.112 303.923 188.753 304.001 188.406C304.079 188.059 304.225 187.731 304.431 187.441C304.637 187.15 304.898 186.904 305.201 186.716C305.503 186.528 305.839 186.402 306.19 186.345C306.541 186.288 306.901 186.301 307.247 186.384C307.593 186.467 307.919 186.618 308.206 186.829C308.493 187.039 308.735 187.304 308.919 187.609C309.102 187.914 309.223 188.252 309.275 188.604C309.321 188.89 310.434 196.042 312.226 233.663C312.562 240.705 314.443 243.548 316.09 243.859C318.835 244.385 325.088 239.746 330.453 227.825C335.679 216.214 337.477 191.966 338.007 182.079C338.02 181.723 338.103 181.372 338.253 181.049C338.402 180.725 338.615 180.435 338.878 180.194C339.141 179.954 339.449 179.768 339.785 179.648C340.12 179.528 340.477 179.476 340.833 179.495C341.189 179.514 341.537 179.604 341.858 179.759C342.179 179.915 342.466 180.132 342.701 180.4C342.937 180.667 343.117 180.978 343.231 181.316C343.345 181.654 343.391 182.011 343.365 182.366C342.687 195.021 340.744 218.04 335.347 230.026C329.983 241.947 322.748 249.263 316.517 249.263Z" fill="#9B3C82"/>
<path d="M798.558 923.143C725.189 906.236 640.906 914.386 615.604 958.17C597.531 989.444 735.302 1133.31 1194.63 957.197C1194.63 957.195 1060.34 983.466 798.558 923.143Z" fill="#5B2448"/>
<path d="M697.349 1480.66C691.511 1385.3 673.964 1336.66 625.336 1338.6C601.007 1339.57 576.359 1362.15 572.604 1404.19C567.041 1466.46 640.906 1577.95 794.665 1689.85C794.665 1689.85 705.447 1612.81 697.349 1480.66Z" fill="#5B2448"/>
<path d="M1001.35 1797.36C955.582 1724.48 903.658 1672.33 856.947 1700.55C843.817 1708.48 835.354 1728.12 837.795 1752.79C842.349 1798.82 902.686 1861.09 1155.71 1926.28C1155.71 1926.28 1065.2 1899.04 1001.35 1797.36Z" fill="#5B2448"/>
<path d="M794.665 1689.85C786.413 1694.33 757.276 1708.34 723.576 1721.59C723.274 1721.71 722.963 1721.84 722.651 1721.95C669.565 1742.77 609.765 1768.66 595.168 1772.55C594.272 1772.78 592.384 1766.94 591.479 1766.88C591.207 1766.86 590.942 1766.82 590.672 1766.78C590.419 1766.74 590.166 1766.69 589.913 1766.63C582.03 1764.89 574.133 1754.44 568.084 1739.76C567.968 1739.51 567.861 1739.24 567.754 1738.98C552.553 1701.31 549.498 1636.82 589.33 1618.82C593.962 1616.73 598.568 1614.58 603.149 1612.38C623.721 1602.52 643.612 1591.8 661.528 1581.55C669.333 1577.09 676.771 1572.71 683.716 1568.54C684.575 1568.02 685.42 1567.51 686.256 1567C712.074 1551.42 730.817 1538.91 736.715 1535.45C736.909 1535.34 737.085 1535.23 737.251 1535.14C800.018 1499.67 794.665 1689.85 794.665 1689.85Z" fill="#F4ADA2"/>
<path d="M1155.71 1926.28C1155.05 1927.3 1142.97 1944.67 1126.74 1967.95C1092.21 2017.49 1038.92 2093.78 1037.04 2096.47C1037 2096.52 1036.98 2096.55 1036.98 2096.55C1030.3 2103.86 1021.88 2104.09 1010.59 2098.18C1010.53 2098.16 1010.48 2098.13 1010.43 2098.1C984.479 2084.41 952.896 2042.86 945.359 2005.53C945.341 2005.49 945.331 2005.44 945.329 2005.4C942.76 1992.64 943.013 1980.37 947.262 1969.88C947.691 1968.83 948.167 1967.78 948.672 1966.75C948.672 1966.75 972.32 1927 992.874 1889.72C997.613 1881.12 1002.19 1872.66 1006.27 1864.83C1013.83 1850.38 1019.68 1838.16 1021.78 1831.46C1021.9 1831.07 1022.01 1830.7 1022.11 1830.35C1022.42 1828.7 1023.32 1827.23 1024.63 1826.19C1025.95 1825.16 1027.59 1824.63 1029.26 1824.71C1056.79 1824.05 1149.09 1919.41 1155.37 1925.93C1155.59 1926.16 1155.71 1926.28 1155.71 1926.28Z" fill="#F4ADA2"/>
<path d="M686.149 1567.05C686.186 1567.04 686.222 1567.02 686.256 1567C712.074 1551.42 730.817 1538.91 736.714 1535.44C736.909 1535.34 737.084 1535.23 737.251 1535.14C800.019 1499.67 794.667 1689.85 794.667 1689.85C758.66 1676.22 701.243 1617.84 675.893 1573.19L686.149 1567.05Z" fill="#9B3C82"/>
<path d="M1154.73 1925.31C1153.97 1925.2 1156.13 1926.06 1155.38 1925.93C1107.55 1918.46 1049.8 1895.06 1006.28 1864.84C1013.83 1850.39 1019.69 1838.17 1021.78 1831.46C1021.99 1830.95 1022.19 1830.45 1022.38 1829.95C1022.88 1828.5 1023.8 1827.22 1025.02 1826.28C1026.25 1825.35 1027.72 1824.8 1029.26 1824.71C1058.39 1821.72 1154.73 1925.31 1154.73 1925.31Z" fill="#9B3C82"/>
<path d="M705.135 918.276C665.235 1013.63 613.658 1147.9 834.565 1277.3C834.565 1277.3 732.383 1328.87 625.336 1338.6C715.839 1344.44 679.833 1484.55 711.947 1565.3C751.549 1664.89 794.665 1689.85 794.665 1689.85C794.665 1689.85 951.343 1605.2 1036.98 1527.36C1036.98 1527.36 937.719 1644.11 856.947 1700.55C913.39 1666.49 972.283 1760 1013.63 1818.27C1072.99 1901.95 1155.71 1926.28 1155.71 1926.28C1155.71 1926.28 1393.64 1578.39 1319.19 1334.7C1258.86 1137.19 1099.26 964.969 1099.26 964.969C1099.26 964.969 765.54 773.919 705.135 918.276Z" fill="#F94F46"/>
<path d="M1006.33 1559.72C1005.78 1559.72 1005.23 1559.55 1004.78 1559.22C1004.32 1558.9 1003.98 1558.44 1003.8 1557.92C1003.61 1557.39 1003.6 1556.82 1003.75 1556.29C1003.91 1555.75 1004.23 1555.28 1004.67 1554.93C1005.65 1554.15 1103.55 1476.15 1177.4 1377.37C1212.28 1330.73 1226 1284.36 1218.19 1239.54C1210.81 1197.2 1184.94 1155.84 1139.1 1113.12C1099.76 1076.44 1052.23 1045.05 1014.05 1019.83C1010.25 1017.32 1006.53 1014.86 1002.9 1012.46C1002.32 1012.06 1001.91 1011.45 1001.78 1010.76C1001.64 1010.07 1001.79 1009.35 1002.18 1008.76C1002.57 1008.17 1003.17 1007.76 1003.86 1007.62C1004.55 1007.47 1005.27 1007.61 1005.87 1007.99C1009.49 1010.39 1013.2 1012.85 1017 1015.35C1055.36 1040.68 1103.08 1072.21 1142.76 1109.19C1189.48 1152.75 1215.88 1195.08 1223.47 1238.63C1231.55 1284.95 1217.49 1332.72 1181.7 1380.59C1107.42 1479.94 1008.98 1558.36 1008 1559.14C1007.52 1559.51 1006.94 1559.72 1006.33 1559.72V1559.72Z" fill="#FCB6B1"/>
<path d="M827.266 1280.47C826.64 1280.48 826.034 1280.26 825.552 1279.86C825.069 1279.46 824.742 1278.9 824.626 1278.29C824.51 1277.67 824.612 1277.04 824.915 1276.49C825.219 1275.94 825.704 1275.52 826.287 1275.29C892.361 1249.44 967.04 1196.36 967.786 1195.82C968.365 1195.41 969.085 1195.24 969.787 1195.36C970.489 1195.48 971.116 1195.87 971.53 1196.45C971.944 1197.03 972.111 1197.75 971.994 1198.45C971.877 1199.15 971.486 1199.78 970.907 1200.19C970.155 1200.73 894.93 1254.2 828.245 1280.29C827.934 1280.41 827.601 1280.47 827.266 1280.47V1280.47Z" fill="#FCB6B1"/>
<path d="M660.369 795.682C613.658 750.927 590.301 655.572 576.6 628.066C567.485 609.771 562.206 595.414 556.406 584.585C575.354 567.752 604.685 544.274 629.228 535.897C669.128 522.275 660.369 795.682 660.369 795.682Z" fill="#9B3C82"/>
<path d="M1345.47 676.979L1338.82 469.589C1342.8 470.582 1358.45 474.406 1378.96 478.336C1380.59 478.647 1382.24 478.959 1383.93 479.271C1384.14 484.943 1384.61 490.921 1385.11 497.231C1390.24 562.167 1387.32 618.601 1345.47 676.979Z" fill="#9B3C82"/>
<path d="M906.953 488.77C906.953 488.77 901.712 386.061 789.799 434.708C677.885 483.355 628.256 488.222 526.074 477.519C526.074 477.519 587.774 480.058 608.792 616.654C624.357 717.844 632.148 742.168 660.369 795.682C671.074 786.925 703.189 759.681 703.189 759.681C703.189 759.681 698.323 816.115 615.604 958.169C651.611 905.628 746.243 909.501 900.74 942.607C1091.48 983.471 1194.63 957.203 1194.63 957.203C1194.63 957.203 1181.01 921.203 1158.63 812.23C1137.32 708.483 1120.67 646.824 1120.67 646.824C1120.67 646.824 1258.86 677.959 1345.47 676.982C1345.47 676.982 1387.11 611.99 1351.31 511.577C1316.28 413.306 1359.1 379.252 1359.1 379.252C1359.1 379.252 1272.49 443.469 1186.85 432.765C1101.25 422.068 1068.12 442.495 1052.55 480.441C1039.67 511.841 946.254 518.509 906.953 488.77Z" fill="#FFCF2D"/>
<path d="M1128.94 667.501C1128.37 667.501 1127.81 667.317 1127.35 666.977C1126.89 666.638 1126.55 666.16 1126.38 665.613C1113.48 624.137 1093.95 566.911 1077.83 530.662C1077.68 530.339 1077.6 529.988 1077.58 529.631C1077.57 529.274 1077.62 528.918 1077.75 528.583C1077.87 528.248 1078.06 527.941 1078.31 527.681C1078.55 527.42 1078.85 527.211 1079.17 527.066C1079.5 526.921 1079.85 526.843 1080.21 526.835C1080.57 526.828 1080.92 526.893 1081.25 527.025C1081.59 527.157 1081.89 527.354 1082.14 527.604C1082.4 527.855 1082.6 528.154 1082.74 528.484C1098.95 564.943 1118.56 622.402 1131.51 664.02C1131.63 664.421 1131.66 664.846 1131.59 665.261C1131.52 665.675 1131.35 666.068 1131.1 666.406C1130.85 666.745 1130.53 667.02 1130.15 667.21C1129.78 667.4 1129.36 667.5 1128.94 667.501V667.501Z" fill="white"/>
<path d="M689.078 778.419C688.536 778.419 688.006 778.255 687.559 777.948C687.112 777.641 686.768 777.206 686.573 776.701C686.378 776.195 686.341 775.642 686.467 775.114C686.592 774.587 686.875 774.11 687.277 773.746C691.951 769.524 696.809 765.155 701.852 760.637C749.86 717.555 815.61 658.553 855.158 595.286C855.345 594.988 855.588 594.729 855.875 594.524C856.162 594.319 856.487 594.173 856.83 594.094C857.173 594.015 857.529 594.004 857.877 594.062C858.224 594.12 858.557 594.246 858.856 594.433C859.155 594.62 859.414 594.864 859.618 595.151C859.823 595.437 859.969 595.762 860.048 596.105C860.128 596.448 860.138 596.804 860.08 597.152C860.022 597.499 859.896 597.832 859.709 598.131C819.759 662.04 753.684 721.339 705.437 764.631C700.413 769.138 695.56 773.503 690.877 777.724C690.384 778.171 689.743 778.418 689.078 778.419V778.419Z" fill="white"/>
<path d="M722.642 1719.9C669.555 1740.71 605.59 1764.43 594.195 1766.71C593.302 1766.89 592.388 1766.95 591.479 1766.88C591.207 1766.86 590.943 1766.82 590.672 1766.78C582.643 1765.5 574.42 1754.86 568.084 1739.76C567.969 1739.51 567.861 1739.24 567.754 1738.98C551.98 1700.63 548.272 1634.61 589.33 1618.82C594.044 1616.91 598.656 1614.76 603.149 1612.38C623.721 1602.52 643.612 1591.8 661.528 1581.55L722.642 1719.9Z" fill="#66B0F0"/>
<path d="M1126.74 1967.95C1092.21 2017.48 1038.92 2093.77 1037.04 2096.47C1030.35 2102.69 1020.59 2101.86 1009.85 2096.23C1009.79 2096.21 1009.74 2096.18 1009.69 2096.15C984.051 2081.08 953.786 2041.49 945.359 2005.53C945.341 2005.49 945.331 2005.44 945.329 2005.4C942.76 1992.63 943.013 1980.36 947.262 1969.87C947.691 1968.82 948.167 1967.78 948.672 1966.75C948.672 1966.75 972.32 1926.99 992.874 1889.72L1126.74 1967.95Z" fill="#66B0F0"/>
<path d="M723.576 1721.59C723.274 1721.71 722.963 1721.84 722.651 1721.95C669.565 1742.76 609.765 1768.66 595.168 1772.55C594.272 1772.78 592.384 1766.94 591.479 1766.88C591.207 1766.86 590.943 1766.82 590.672 1766.78C590.419 1766.74 590.166 1766.69 589.913 1766.63C582.127 1764.82 574.216 1754.4 568.084 1739.76C567.969 1739.51 567.861 1739.24 567.754 1738.98C551.98 1700.63 548.272 1634.61 589.33 1618.82C594.044 1616.91 598.656 1614.76 603.149 1612.38C623.721 1602.52 643.612 1591.8 661.528 1581.55L723.576 1721.59Z" fill="#66B0F0"/>
<path d="M634.182 1586.6L624.27 1590.72L686.552 1740.56L696.464 1736.44L634.182 1586.6Z" fill="white"/>
<path d="M1126.74 1967.95C1092.21 2017.48 1038.92 2093.77 1037.04 2096.47C1030.35 2102.69 1020.59 2101.86 1009.85 2096.23C1009.79 2096.21 1009.74 2096.18 1009.69 2096.15C984.051 2081.08 953.786 2041.49 945.359 2005.53C945.341 2005.49 945.331 2005.44 945.329 2005.4C942.76 1992.63 943.013 1980.36 947.262 1969.87C947.691 1968.82 948.167 1967.78 948.672 1966.75C948.672 1966.75 972.32 1926.99 992.874 1889.72L1126.74 1967.95Z" fill="#66B0F0"/>
<path d="M968.006 1905.41L962.37 1914.55L1118.1 2010.61L1123.73 2001.48L968.006 1905.41Z" fill="white"/>
<path d="M1106.78 2358.89C1087.36 2361.71 1050.28 2351.13 1007 2308.86L796.269 2103.09C842.857 2065.09 885.623 2042.8 950.851 1964.59C981.038 2013.95 957.165 2017.38 1024.33 2082.82C1046.67 2104.58 1049.93 2114.03 1069.23 2144.14C1069.98 2145.3 1070.62 2146.5 1071.31 2147.67C1071.5 2148 1071.7 2148.31 1071.88 2148.63C1083.6 2168.63 1093.35 2189.73 1100.98 2211.62C1130.03 2296.15 1109.19 2352.8 1106.97 2358.43C1106.97 2358.43 1106.97 2358.43 1106.97 2358.43C1106.97 2358.43 1106.97 2358.43 1106.97 2358.44C1106.97 2358.44 1106.97 2358.44 1106.97 2358.44C1106.97 2358.44 1106.97 2358.44 1106.97 2358.44C1106.92 2358.57 1106.87 2358.68 1106.84 2358.75C1106.8 2358.85 1106.78 2358.89 1106.78 2358.89Z" fill="white"/>
<path d="M1100.47 2362C1078.6 2362 1043.99 2348.74 1005.12 2310.78L794.271 2104.89C793.994 2104.62 793.78 2104.29 793.641 2103.93C793.502 2103.57 793.443 2103.18 793.468 2102.8C793.492 2102.41 793.599 2102.04 793.782 2101.7C793.965 2101.36 794.219 2101.06 794.527 2100.83C802.321 2094.94 809.489 2089.62 816.425 2084.48C858.653 2053.16 886.549 2032.46 946.441 1963.5C946.671 1963.23 946.952 1963 947.268 1962.84C947.585 1962.68 947.93 1962.58 948.284 1962.56C948.639 1962.53 948.995 1962.57 949.332 1962.68C949.669 1962.8 949.981 1962.97 950.25 1963.21C950.518 1963.44 950.737 1963.72 950.895 1964.04C951.053 1964.36 951.146 1964.71 951.168 1965.06C951.191 1965.42 951.143 1965.77 951.027 1966.11C950.911 1966.44 950.73 1966.75 950.494 1967.02C890.219 2036.42 862.134 2057.26 819.623 2088.79C813.446 2093.37 807.082 2098.09 800.259 2103.23L1008.88 2306.94C1049.53 2346.65 1084.77 2358.51 1104.87 2356.43C1108.61 2346.37 1127 2289.61 1099.61 2209.9C1091.3 2185.76 1068.03 2134.75 1033.51 2096.77C1033.27 2096.51 1033.07 2096.2 1032.95 2095.87C1032.82 2095.53 1032.76 2095.18 1032.77 2094.82C1032.79 2094.46 1032.87 2094.11 1033.02 2093.79C1033.17 2093.46 1033.39 2093.17 1033.65 2092.93C1033.92 2092.69 1034.23 2092.51 1034.56 2092.39C1034.9 2092.27 1035.26 2092.22 1035.62 2092.24C1035.97 2092.26 1036.32 2092.35 1036.64 2092.51C1036.96 2092.67 1037.25 2092.89 1037.48 2093.16C1072.59 2131.79 1096.24 2183.62 1104.68 2208.16C1133.62 2292.38 1112.39 2351.95 1109.53 2359.25C1109.51 2359.32 1109.49 2359.38 1109.47 2359.44C1109.41 2359.58 1109.36 2359.7 1109.31 2359.8L1109.25 2359.93C1109.07 2360.36 1108.79 2360.73 1108.42 2361.01C1108.05 2361.29 1107.62 2361.48 1107.17 2361.54C1104.95 2361.86 1102.71 2362.01 1100.47 2362V2362Z" fill="#5B2448"/>
<path d="M993.682 2074.11C993.151 2074.11 992.632 2073.96 992.191 2073.66C969.163 2058.24 960.227 2057.68 942.425 2056.59C937.662 2056.29 932.263 2055.96 925.857 2055.29C895.13 2052.06 882.06 2038.74 881.524 2038.18C881.031 2037.66 880.762 2036.98 880.776 2036.26C880.79 2035.55 881.087 2034.88 881.6 2034.38C882.113 2033.89 882.801 2033.62 883.513 2033.64C884.225 2033.65 884.901 2033.95 885.395 2034.46V2034.46C885.515 2034.58 897.822 2046.95 926.42 2049.95C932.712 2050.61 938.049 2050.94 942.759 2051.23C960.935 2052.35 970.947 2052.97 995.182 2069.2C995.66 2069.52 996.022 2069.99 996.216 2070.53C996.409 2071.07 996.423 2071.66 996.255 2072.21C996.087 2072.76 995.747 2073.25 995.284 2073.59C994.821 2073.93 994.261 2074.12 993.685 2074.11H993.682Z" fill="#5B2448"/>
<path d="M1111.98 2343.69C1111.84 2343.69 1111.69 2343.68 1111.55 2343.66C1074.01 2337.63 1041.09 2318.81 1013.7 2287.71C995.877 2267.48 980.403 2241.94 967.71 2211.81C959.971 2193.44 950.44 2186.86 941.222 2180.49C933.314 2175.03 925.137 2169.38 918.536 2156.86C913.311 2146.95 912.117 2138.13 910.962 2129.6C909.448 2118.42 908.018 2107.86 897.938 2094.6C888.755 2082.53 877.307 2074.63 863.909 2071.13C858.201 2069.55 852.26 2068.99 846.357 2069.48C845.657 2069.57 844.951 2069.38 844.391 2068.95C843.831 2068.52 843.462 2067.89 843.365 2067.19C843.268 2066.49 843.45 2065.78 843.872 2065.21C844.294 2064.65 844.921 2064.27 845.619 2064.17C846.938 2063.97 878.348 2059.98 902.21 2091.36C913.146 2105.74 914.738 2117.5 916.28 2128.88C917.422 2137.32 918.501 2145.29 923.283 2154.35C929.269 2165.71 936.558 2170.74 944.273 2176.08C954.124 2182.88 964.309 2189.92 972.655 2209.73C985.124 2239.32 1000.29 2264.37 1017.72 2284.16C1044.27 2314.3 1076.13 2332.54 1112.4 2338.36C1113.07 2338.47 1113.67 2338.82 1114.08 2339.35C1114.5 2339.88 1114.7 2340.55 1114.65 2341.22C1114.6 2341.89 1114.29 2342.52 1113.8 2342.98C1113.3 2343.43 1112.65 2343.69 1111.98 2343.69V2343.69Z" fill="#5B2448"/>
<path d="M878.719 2150.42C876.46 2150.4 874.212 2150.11 872.025 2149.54C864.754 2147.74 857.188 2143.26 850.721 2136.95C844.255 2130.63 839.601 2123.17 837.625 2115.95C835.507 2108.22 836.659 2101.59 840.855 2097.29C845.051 2093 851.654 2091.69 859.431 2093.63C866.703 2095.43 874.268 2099.91 880.737 2106.22C887.205 2112.54 891.855 2120 893.833 2127.22C895.951 2134.95 894.799 2141.57 890.602 2145.87C889.034 2147.4 887.172 2148.59 885.129 2149.37C883.085 2150.15 880.904 2150.51 878.719 2150.42V2150.42ZM852.75 2098.12C851.28 2098.04 849.809 2098.25 848.425 2098.76C847.041 2099.26 845.773 2100.04 844.699 2101.04C841.883 2103.92 841.211 2108.71 842.804 2114.53C844.536 2120.85 848.682 2127.45 854.477 2133.11C860.273 2138.77 866.967 2142.75 873.327 2144.34C879.181 2145.79 883.954 2145.01 886.769 2142.12C889.583 2139.24 890.255 2134.45 888.662 2128.64C886.93 2122.32 882.785 2115.72 876.99 2110.06C871.194 2104.4 864.499 2100.41 858.139 2098.83C856.378 2098.38 854.568 2098.14 852.75 2098.12V2098.12Z" fill="#5B2448"/>
<path d="M1079.58 2160.45C1078.34 2160.45 1077.11 2160.16 1075.99 2159.6C1059.1 2150.94 1040.21 2146.91 1021.25 2147.91C1007.23 2148.71 998.317 2152.2 998.229 2152.24C996.263 2152.98 994.085 2152.92 992.161 2152.08C990.238 2151.23 988.72 2149.67 987.931 2147.73C987.143 2145.78 987.147 2143.6 987.943 2141.66C988.739 2139.71 990.263 2138.16 992.19 2137.32C993.881 2136.63 1034.21 2120.74 1083.19 2145.2C1084.82 2146.01 1086.12 2147.35 1086.89 2148.99C1087.66 2150.63 1087.85 2152.49 1087.43 2154.26C1087.02 2156.02 1086.01 2157.59 1084.59 2158.72C1083.17 2159.85 1081.4 2160.46 1079.59 2160.45L1079.58 2160.45Z" fill="#FFCF2D"/>
<path d="M1096.24 2198.95C1094.77 2198.95 1093.33 2198.54 1092.08 2197.78C1053.49 2174.39 1014.14 2187.08 1013.76 2187.22C1011.74 2187.87 1009.55 2187.7 1007.66 2186.75C1005.77 2185.8 1004.33 2184.14 1003.65 2182.13C1002.97 2180.13 1003.11 2177.94 1004.04 2176.03C1004.97 2174.13 1006.61 2172.67 1008.6 2171.96C1010.49 2171.32 1055.25 2156.62 1100.43 2184.01C1101.93 2184.93 1103.09 2186.3 1103.74 2187.94C1104.39 2189.58 1104.48 2191.38 1104.01 2193.07C1103.53 2194.76 1102.52 2196.26 1101.11 2197.32C1099.71 2198.38 1098 2198.95 1096.24 2198.95H1096.24Z" fill="#FFCF2D"/>
<path d="M1108.35 2236.4C1106.85 2236.4 1105.38 2235.98 1104.1 2235.18C1069.78 2213.8 1035.74 2223.86 1035.4 2223.96C1033.37 2224.57 1031.18 2224.36 1029.31 2223.36C1027.43 2222.37 1026.03 2220.68 1025.4 2218.65C1024.77 2216.63 1024.96 2214.44 1025.93 2212.55C1026.91 2210.67 1028.59 2209.25 1030.61 2208.6C1032.27 2208.07 1071.81 2196.1 1112.62 2221.52C1114.1 2222.44 1115.25 2223.83 1115.88 2225.46C1116.51 2227.09 1116.58 2228.88 1116.1 2230.57C1115.62 2232.25 1114.6 2233.73 1113.21 2234.78C1111.81 2235.83 1110.1 2236.4 1108.35 2236.4Z" fill="#FFCF2D"/>
<path d="M530.864 2023.28C512.4 2016.64 484.67 1989.86 466.372 1932.19L377.294 1651.48C436.286 1639.87 492.016 1639.25 590.304 1616.87C599.062 1668.44 563.055 1667.47 588.066 1740.9C598.119 1770.41 595.956 1780.48 598.821 1816.13C598.929 1817.51 598.938 1818.87 598.994 1820.22C599.008 1820.6 599.03 1820.98 599.042 1821.34C599.972 1844.51 598.642 1867.7 595.07 1890.61C580.912 1978.87 535.866 2019.04 531.254 2022.97C531.255 2022.97 531.255 2022.97 531.255 2022.97C531.255 2022.97 531.255 2022.97 531.254 2022.97C531.253 2022.98 531.253 2022.98 531.251 2022.98C531.25 2022.98 531.249 2022.98 531.248 2022.98C531.141 2023.07 531.049 2023.14 530.987 2023.19L530.864 2023.28Z" fill="white"/>
<path d="M530.857 2025.97C530.55 2025.97 530.244 2025.91 529.954 2025.81C509.929 2018.6 482.038 1990.43 463.814 1933.01L374.681 1652.13C374.565 1651.76 374.529 1651.37 374.576 1650.99C374.624 1650.6 374.753 1650.24 374.956 1649.91C375.159 1649.58 375.431 1649.3 375.752 1649.08C376.073 1648.87 376.437 1648.73 376.818 1648.67C400.005 1644.99 420.997 1642.64 443.228 1640.15C485.601 1635.41 529.414 1630.5 589.171 1615.73C589.862 1615.56 590.593 1615.67 591.202 1616.03C591.811 1616.4 592.25 1617 592.421 1617.69C592.591 1618.38 592.481 1619.11 592.113 1619.72C591.745 1620.33 591.15 1620.77 590.459 1620.94C530.36 1635.8 486.368 1640.72 443.826 1645.48C422.651 1647.86 402.597 1650.1 380.744 1653.48L468.931 1931.38C486.121 1985.55 511.633 2012.61 530.34 2020.21C538.377 2013.09 581.313 1971.66 594.661 1888.45C598.696 1863.24 602.169 1807.29 589.593 1757.53C589.419 1756.84 589.526 1756.11 589.891 1755.49C590.255 1754.88 590.848 1754.44 591.538 1754.27C592.228 1754.09 592.959 1754.2 593.57 1754.57C594.182 1754.93 594.623 1755.52 594.797 1756.21C607.586 1806.82 604.061 1863.68 599.96 1889.3C585.84 1977.32 538.97 2019.89 533.106 2024.91C533.072 2024.95 533.037 2024.98 532.999 2025.01C532.871 2025.12 532.755 2025.21 532.664 2025.28L532.546 2025.37C532.066 2025.75 531.471 2025.96 530.857 2025.97Z" fill="#5B2448"/>
<path d="M565.35 1723.91C564.864 1723.91 564.386 1723.77 563.969 1723.52C563.552 1723.27 563.21 1722.92 562.981 1722.49C549.923 1698.04 542.297 1693.35 527.105 1684.01C523.041 1681.5 518.435 1678.67 513.099 1675.06C487.506 1657.76 482.244 1639.86 482.032 1639.11C481.85 1638.43 481.943 1637.7 482.291 1637.09C482.64 1636.48 483.216 1636.03 483.895 1635.83C484.573 1635.64 485.3 1635.72 485.918 1636.06C486.536 1636.4 486.996 1636.97 487.197 1637.65V1637.65C488.503 1641.34 490.323 1644.83 492.605 1648.01C496.45 1653.68 503.647 1662.2 516.106 1670.62C521.346 1674.16 525.9 1676.97 529.918 1679.44C545.428 1688.98 553.972 1694.24 567.715 1719.96C567.933 1720.37 568.042 1720.83 568.031 1721.29C568.02 1721.75 567.889 1722.21 567.651 1722.6C567.413 1723 567.077 1723.33 566.674 1723.56C566.272 1723.79 565.817 1723.91 565.353 1723.91L565.35 1723.91Z" fill="#5B2448"/>
<path d="M543.864 2012.64C543.279 2012.64 542.71 2012.45 542.244 2012.09C511.961 1989.12 491.772 1957.01 482.238 1916.68C476.037 1890.45 474.402 1860.64 477.386 1828.08C479.204 1808.23 473.893 1797.94 468.758 1787.98C464.357 1779.44 459.795 1770.61 459.864 1756.46C459.916 1745.36 463.124 1737.06 466.225 1729.03C470.334 1718.4 474.217 1708.35 471.006 1691.92C464.831 1660.32 442.641 1646.04 442.418 1645.9C441.814 1645.52 441.386 1644.92 441.226 1644.23C441.066 1643.54 441.189 1642.81 441.566 1642.2C441.944 1641.6 442.545 1641.17 443.239 1641.01C443.933 1640.85 444.661 1640.97 445.265 1641.35C446.256 1641.97 469.632 1656.91 476.273 1690.89C479.78 1708.84 475.434 1720.09 471.228 1730.97C468.168 1738.89 465.275 1746.37 465.228 1756.48C465.165 1769.32 469.226 1777.19 473.525 1785.52C479.013 1796.16 484.689 1807.16 482.727 1828.57C479.8 1860.55 481.392 1889.78 487.46 1915.45C496.699 1954.53 516.222 1985.61 545.487 2007.82C545.935 2008.16 546.265 2008.63 546.431 2009.17C546.596 2009.7 546.588 2010.28 546.409 2010.81C546.229 2011.35 545.887 2011.81 545.43 2012.14C544.973 2012.46 544.424 2012.64 543.862 2012.64L543.864 2012.64Z" fill="#5B2448"/>
<path d="M436.078 1734.28C425.68 1734.28 414.572 1723.27 409.4 1706.98C406.666 1698.36 406.072 1689.59 407.725 1682.29C409.495 1674.47 413.629 1669.16 419.356 1667.35C425.083 1665.53 431.519 1667.48 437.474 1672.85C443.038 1677.87 447.609 1685.37 450.342 1693.99C456.239 1712.57 451.864 1729.98 440.386 1733.62C438.993 1734.06 437.54 1734.29 436.078 1734.28V1734.28ZM423.64 1672.05C422.738 1672.05 421.84 1672.19 420.979 1672.46C417.14 1673.68 414.292 1677.59 412.96 1683.47C411.513 1689.86 412.065 1697.63 414.515 1705.35C419.336 1720.54 430.437 1731.14 438.763 1728.5C447.086 1725.86 450.046 1710.79 445.227 1695.61C442.778 1687.89 438.748 1681.22 433.879 1676.83C430.395 1673.69 426.851 1672.05 423.64 1672.05Z" fill="#5B2448"/>
<path d="M602.817 1842.35C601.53 1842.36 600.262 1842.05 599.119 1841.46C597.975 1840.87 596.99 1840.01 596.246 1838.96C585.415 1823.37 570.645 1810.92 553.439 1802.89C540.692 1797.01 531.186 1795.89 531.091 1795.88C530.04 1795.77 529.021 1795.45 528.092 1794.95C527.163 1794.44 526.343 1793.76 525.678 1792.94C525.014 1792.12 524.517 1791.17 524.218 1790.16C523.918 1789.14 523.822 1788.08 523.933 1787.03C524.044 1785.98 524.362 1784.96 524.867 1784.03C525.372 1783.1 526.055 1782.28 526.878 1781.62C527.7 1780.95 528.645 1780.46 529.659 1780.16C530.673 1779.86 531.736 1779.76 532.787 1779.87C534.605 1780.06 577.672 1785.02 609.374 1829.64C610.229 1830.85 610.736 1832.26 610.841 1833.74C610.945 1835.21 610.642 1836.68 609.965 1837.99C609.288 1839.31 608.263 1840.41 607.003 1841.18C605.742 1841.95 604.294 1842.35 602.817 1842.35V1842.35Z" fill="#FFCF2D"/>
<path d="M599.396 1884.16C597.998 1884.16 596.624 1883.8 595.409 1883.11C594.193 1882.42 593.179 1881.42 592.466 1880.22C569.279 1841.18 528.762 1834.12 528.355 1834.05C526.275 1833.68 524.426 1832.5 523.207 1830.77C521.988 1829.05 521.497 1826.91 521.839 1824.83C522.181 1822.74 523.33 1820.88 525.037 1819.63C526.744 1818.38 528.873 1817.86 530.963 1818.17C532.926 1818.49 579.335 1826.58 606.311 1872.01C607.037 1873.23 607.427 1874.62 607.44 1876.04C607.454 1877.46 607.091 1878.86 606.388 1880.1C605.686 1881.33 604.669 1882.36 603.441 1883.07C602.213 1883.79 600.817 1884.17 599.396 1884.17V1884.16Z" fill="#FFCF2D"/>
<path d="M592.454 1922.91C591.04 1922.91 589.65 1922.54 588.426 1921.83C587.201 1921.12 586.184 1920.11 585.477 1918.88C565.251 1883.86 530.487 1876.73 530.137 1876.66C528.05 1876.25 526.21 1875.03 525.019 1873.27C523.827 1871.51 523.381 1869.35 523.777 1867.26C524.173 1865.17 525.38 1863.32 527.133 1862.12C528.887 1860.92 531.046 1860.46 533.137 1860.84C534.855 1861.16 575.377 1869.2 599.421 1910.83C600.127 1912.05 600.5 1913.44 600.5 1914.85C600.501 1916.27 600.13 1917.65 599.424 1918.88C598.718 1920.1 597.703 1921.12 596.48 1921.83C595.257 1922.53 593.869 1922.91 592.456 1922.91H592.454Z" fill="#FFCF2D"/>
<path d="M1392 1075.11L1724.72 1236L1792.99 1148.33L1392 1075.11Z" fill="#5B2448"/>
<path d="M1392 1075.11L1764.15 1055.84L1868 1176.27L1392 1075.11Z" fill="#3FB1B5"/>
<path d="M1752.61 1056.81L1672.17 964L1392 1075.11L1752.61 1056.81Z" fill="#3FB1B5"/>
<path d="M1759.66 1050.77L1392.32 1072.95L1392.64 1078.25L1759.98 1056.07L1759.66 1050.77Z" fill="#6CE0DC"/>
<path d="M1669.32 1645.12C1649.52 1645.74 1639.55 1654.87 1628.51 1647.9C1612.11 1637.53 1635.71 1592.82 1680.17 1570.02C1718.12 1550.57 1761.85 1553.45 1784.5 1594.21C1808.91 1638.12 1783.48 1664.54 1752.16 1661.34C1730.82 1659.16 1701.48 1644.13 1669.32 1645.12Z" fill="#5B2448"/>
<path d="M1871.11 2043.33C1871.11 2043.33 1944.16 2086.9 1953.99 2143.85C1962.5 2193.18 2016.35 2160.06 2000.61 2108.36C1984.44 2055.29 1958.07 2025.39 1958.07 2025.39L1871.11 2043.33Z" fill="#5B2448"/>
<path d="M1533.05 1872.83C1533.05 1872.83 1458.61 1866.22 1432.92 1804.03C1413.21 1756.29 1441.03 1726.5 1470.09 1765.36C1504.11 1810.83 1555.33 1816.18 1555.33 1816.18L1533.05 1872.83Z" fill="#5B2448"/>
<path d="M1525.08 1855.75C1473.39 1851.32 1445.28 1807.36 1429.14 1825.5C1413.61 1842.98 1428.6 1892.18 1498.05 1926.09C1555.47 1954.12 1592.99 1951.85 1592.99 1951.85C1702.79 2067.07 1911.85 2040.82 1911.85 2040.82C1961.57 2070.1 1985.01 2052.07 2023.45 2080.24C2062.73 2109.03 2059.76 2125.18 2077.66 2129.64C2098.73 2134.89 2110.71 2110.95 2101.47 2080.67C2085.78 2029.25 2028.39 2035.01 2004.48 1965.7C1999.78 1952.1 1986.71 1927.81 1977.47 1913.19C1969.47 1900.53 1959.64 1889.34 1950.18 1882.32C1918.14 1858.54 1876.15 1855.95 1839.18 1837.95C1838.2 1837.48 1837.22 1837 1836.26 1836.51C1792.87 1814.71 1771.18 1788.42 1749.53 1760.1C1740.63 1748.54 1732.65 1736.3 1725.65 1723.5C1717.98 1709.62 1711.87 1694.94 1707.41 1679.72C1692.48 1627.13 1672.62 1587.83 1636.58 1584.86C1602.59 1582.05 1571.9 1615.07 1559.11 1636.58C1557.17 1597.97 1545.37 1572.12 1529.7 1574.01C1514.04 1575.91 1500.43 1628.54 1492.51 1700.04C1487.89 1741.66 1495.35 1780.2 1505.36 1810.43C1515.85 1842.13 1520 1848.32 1525.08 1855.75Z" fill="#FFCF2D"/>
<path d="M1592.22 1957.03C1592.37 1957.07 1592.52 1957.09 1592.67 1957.11C1622.84 1959.33 1643.14 1953.98 1643.99 1953.75C1644.33 1953.66 1644.65 1953.51 1644.92 1953.3C1645.2 1953.08 1645.43 1952.82 1645.6 1952.52C1645.78 1952.22 1645.89 1951.88 1645.94 1951.54C1645.98 1951.19 1645.96 1950.84 1645.87 1950.5C1645.78 1950.17 1645.62 1949.85 1645.41 1949.58C1645.2 1949.3 1644.93 1949.07 1644.63 1948.89C1644.33 1948.72 1644 1948.61 1643.65 1948.56C1643.31 1948.52 1642.96 1948.54 1642.62 1948.63C1642.42 1948.68 1622.27 1953.96 1593.06 1951.81C1592.4 1951.76 1591.74 1951.96 1591.22 1952.38C1590.7 1952.79 1590.35 1953.38 1590.24 1954.04C1590.14 1954.69 1590.28 1955.36 1590.65 1955.92C1591.02 1956.47 1591.58 1956.87 1592.22 1957.03L1592.22 1957.03Z" fill="#9B3C82"/>
<path d="M1521.45 1855.01C1534.86 1858.35 1555.86 1854.16 1556.79 1853.97C1557.47 1853.83 1558.07 1853.42 1558.46 1852.83C1558.84 1852.25 1558.98 1851.53 1558.84 1850.85C1558.7 1850.16 1558.3 1849.56 1557.72 1849.17C1557.13 1848.78 1556.42 1848.64 1555.74 1848.78C1555.51 1848.82 1532.93 1853.33 1521.07 1849.38C1520.4 1849.16 1519.67 1849.21 1519.05 1849.53C1518.42 1849.84 1517.94 1850.39 1517.72 1851.06C1517.5 1851.73 1517.55 1852.46 1517.86 1853.08C1518.18 1853.71 1518.73 1854.19 1519.4 1854.41C1520.06 1854.63 1520.74 1854.83 1521.45 1855.01Z" fill="#9B3C82"/>
<path d="M1916.56 2049.47C1917.19 2049.63 1917.86 2049.55 1918.43 2049.25C1919.01 2048.95 1919.45 2048.45 1919.68 2047.84C1919.91 2047.23 1919.91 2046.56 1919.68 2045.96C1919.45 2045.35 1919 2044.85 1918.43 2044.55C1878.98 2023.91 1847.32 1989.88 1837.56 1968.34C1837.42 1968.02 1837.22 1967.72 1836.97 1967.47C1836.71 1967.22 1836.41 1967.03 1836.08 1966.9C1835.75 1966.77 1835.4 1966.7 1835.05 1966.71C1834.69 1966.72 1834.34 1966.8 1834.02 1966.95C1833.69 1967.09 1833.4 1967.3 1833.16 1967.56C1832.92 1967.82 1832.74 1968.13 1832.62 1968.47C1832.5 1968.8 1832.44 1969.15 1832.46 1969.51C1832.48 1969.86 1832.57 1970.21 1832.73 1970.53C1846.3 2000.47 1885.74 2033.43 1915.97 2049.25C1916.16 2049.34 1916.36 2049.42 1916.56 2049.47V2049.47Z" fill="#9B3C82"/>
<path d="M1916.56 2049.47C1917.19 2049.63 1917.84 2049.55 1918.42 2049.26C1918.99 2048.96 1919.43 2048.47 1919.67 2047.87C1919.91 2047.28 1919.92 2046.61 1919.7 2046.01C1919.49 2045.4 1919.06 2044.9 1918.5 2044.58C1887.61 2027.29 1849.88 1995.54 1837.56 1968.34C1837.42 1968.01 1837.22 1967.72 1836.97 1967.47C1836.72 1967.22 1836.41 1967.02 1836.08 1966.89C1835.75 1966.76 1835.4 1966.7 1835.05 1966.71C1834.69 1966.72 1834.34 1966.8 1834.02 1966.94C1833.7 1967.09 1833.4 1967.3 1833.16 1967.56C1832.92 1967.82 1832.74 1968.13 1832.62 1968.46C1832.5 1968.8 1832.45 1969.15 1832.46 1969.51C1832.48 1969.86 1832.58 1970.21 1832.73 1970.53C1838.84 1984 1850.96 1999.18 1867.78 2014.42C1882.53 2027.71 1898.66 2039.38 1915.91 2049.21C1916.11 2049.32 1916.33 2049.41 1916.56 2049.47V2049.47Z" fill="#9B3C82"/>
<path d="M1511.7 1679.69C1512.04 1682.21 1512.91 1684.63 1514.25 1686.79C1515.55 1688.91 1517.18 1690.82 1519.06 1692.44C1521.85 1694.99 1525.18 1696.89 1528.79 1697.98C1532.41 1699.08 1536.23 1699.35 1539.96 1698.78C1542.46 1698.4 1544.87 1697.64 1547.14 1696.53C1551.71 1694.38 1555.36 1690.66 1557.43 1686.05C1557.65 1685.52 1557.68 1684.93 1557.5 1684.38C1557.32 1683.83 1556.95 1683.37 1556.45 1683.08C1555.96 1682.79 1555.38 1682.68 1554.81 1682.79C1554.25 1682.89 1553.74 1683.2 1553.38 1683.65L1553.32 1683.72C1550.98 1686.67 1547.89 1688.94 1544.37 1690.27C1542.64 1690.93 1540.84 1691.36 1539 1691.55C1537.18 1691.76 1535.33 1691.73 1533.51 1691.47C1529.83 1690.84 1526.34 1689.37 1523.34 1687.15C1520.24 1685.02 1517.81 1682.07 1516.31 1678.63L1516.27 1678.53C1516.05 1678 1515.65 1677.56 1515.14 1677.3C1514.63 1677.04 1514.04 1676.98 1513.48 1677.12C1512.92 1677.26 1512.44 1677.6 1512.11 1678.07C1511.79 1678.54 1511.64 1679.12 1511.71 1679.69L1511.7 1679.69Z" fill="#9B3C82"/>
<path d="M1522.76 1567.88C1522.6 1577.86 1526.12 1586.44 1532.73 1587.18C1539.35 1587.91 1544.57 1580.3 1546.71 1570.55C1548.61 1561.9 1545.95 1552.28 1536.73 1551.25C1527.52 1550.23 1522.91 1558.11 1522.76 1567.88Z" fill="#5B2448"/>
<path d="M1674.57 1652.68C1651.99 1640.81 1646.63 1623.59 1629.87 1624.84C1604.95 1626.7 1604.73 1691.8 1641.48 1744.6C1672.83 1789.66 1723.68 1819.33 1774.69 1780.21C1831.5 1736.65 1807.33 1692.39 1780.53 1681.1C1757.68 1671.47 1693.42 1662.58 1674.57 1652.68Z" fill="#5B2448"/>
<path d="M1569.02 1638.18C1569.87 1630.52 1574.99 1624.81 1580.46 1625.42C1585.93 1626.03 1589.67 1632.73 1588.82 1640.38C1587.96 1648.04 1582.84 1653.75 1577.38 1653.14C1571.91 1652.53 1568.17 1645.83 1569.02 1638.18Z" fill="#5B2448"/>
<path d="M1929.36 1872.32C1929.36 1872.32 1974.36 1887.87 2019.32 1834.17C2028.82 1822.83 2040.33 1822.2 2035.21 1842.8C2026.14 1879.28 1992.19 1910.02 1958.33 1922.4L1929.36 1872.32Z" fill="#FFCF2D"/>
<path d="M1879.74 1921.63C1918.24 1944.42 1961.5 1946.46 1977.47 1913.19C1969.47 1900.53 1959.64 1889.34 1950.18 1882.31C1918.15 1858.53 1876.15 1855.95 1839.18 1837.95C1838.2 1837.47 1837.22 1836.99 1836.26 1836.5C1835.56 1837.41 1834.91 1838.36 1834.33 1839.35C1820.92 1861.99 1841.25 1898.82 1879.74 1921.63Z" fill="#5B2448"/>
<path d="M1853.63 1046.84C1852.53 1046.84 1851.47 1046.41 1850.68 1045.65C1849.88 1044.89 1849.41 1043.86 1849.36 1042.76C1849.31 1041.66 1849.68 1040.59 1850.4 1039.75C1851.12 1038.92 1852.14 1038.4 1853.23 1038.3C1946.51 1029.4 2030.23 1003.63 2095.33 963.755C2162.49 922.624 2206.87 867.948 2223.68 805.642C2232.72 772.096 2233.86 736.27 2227.05 699.158C2219.83 659.81 2203.6 618.662 2178.82 576.856C2124.2 484.706 2028.64 389.355 1894.79 293.447C1661.61 126.36 1390.54 58.1149 1204.2 30.2814C1090.33 13.1505 975.162 6.14382 860.053 9.34368C755.223 12.4204 655.725 24.7121 572.317 44.8818C571.214 45.1486 570.049 44.9663 569.08 44.375C568.112 43.7836 567.417 42.8317 567.151 41.7286C566.884 40.6255 567.066 39.4615 567.657 38.4928C568.249 37.5241 569.201 36.83 570.304 36.5632C654.286 16.2534 754.388 3.88353 859.802 0.788655C975.419 -2.4217 1091.09 4.61752 1205.47 21.8237C1392.74 49.7921 1665.21 118.411 1899.78 286.494C2034.59 383.095 2130.95 479.318 2186.19 572.49C2211.49 615.174 2228.07 657.265 2235.47 697.61C2242.51 735.985 2241.32 773.081 2231.94 807.867C2214.55 872.33 2168.86 928.76 2099.8 971.055C2033.59 1011.6 1948.61 1037.8 1854.04 1046.82C1853.9 1046.83 1853.77 1046.84 1853.63 1046.84V1046.84Z" fill="#90C6F5"/>
<path d="M476.252 1556C475.776 1556 475.303 1555.92 474.853 1555.77C432.972 1540.4 392.546 1521.34 354.055 1498.79C318.114 1477.51 288.537 1455.07 266.146 1432.1C237.868 1403.09 220.979 1373.09 215.953 1342.94C209.221 1302.56 219.843 1267.22 247.525 1237.9C279.212 1204.35 333.241 1179.4 403.771 1165.77C466.128 1153.72 538.193 1151.16 606.69 1158.56C607.254 1158.62 607.802 1158.78 608.302 1159.05C608.801 1159.32 609.243 1159.68 609.601 1160.12C609.959 1160.56 610.226 1161.07 610.387 1161.61C610.548 1162.15 610.6 1162.72 610.539 1163.28C610.478 1163.85 610.306 1164.39 610.032 1164.89C609.759 1165.39 609.39 1165.82 608.946 1166.17C608.502 1166.53 607.993 1166.79 607.448 1166.94C606.903 1167.1 606.333 1167.14 605.77 1167.07C538.098 1159.76 466.936 1162.28 405.397 1174.18C336.637 1187.46 284.198 1211.53 253.749 1243.78C228.004 1271.04 218.128 1303.93 224.396 1341.53C229.127 1369.91 245.22 1398.36 272.228 1426.08C294.073 1448.5 323.029 1470.46 358.295 1491.36C396.325 1513.64 436.269 1532.49 477.651 1547.68C478.608 1548.01 479.418 1548.67 479.936 1549.54C480.453 1550.41 480.645 1551.43 480.478 1552.43C480.31 1553.43 479.793 1554.34 479.019 1554.99C478.246 1555.64 477.265 1556 476.252 1556V1556Z" fill="#90C6F5"/>
<path d="M505.261 2672.94H531.98V2745H550.219V2672.94H576.938V2657.73H505.261V2672.94ZM606.554 2707.16C606.597 2698.72 611.753 2693.78 619.168 2693.78C626.54 2693.78 630.886 2698.51 630.844 2706.56V2745H648.997V2703.32C649.04 2687.98 640.006 2678.69 626.369 2678.69C616.44 2678.69 609.793 2683.38 606.81 2691.09H606.043V2657.73H588.401V2745H606.554V2707.16ZM663.283 2745H681.437V2679.55H663.283V2745ZM672.403 2671.11C677.815 2671.11 682.246 2666.97 682.246 2661.9C682.246 2656.88 677.815 2652.74 672.403 2652.74C667.033 2652.74 662.602 2656.88 662.602 2661.9C662.602 2666.97 667.033 2671.11 672.403 2671.11ZM714.132 2707.16C714.175 2698.72 719.203 2693.78 726.533 2693.78C733.82 2693.78 738.209 2698.55 738.166 2706.56V2745H756.32V2703.32C756.32 2688.07 747.371 2678.69 733.734 2678.69C724.018 2678.69 716.987 2683.47 714.047 2691.09H713.28V2679.55H695.979V2745H714.132V2707.16ZM770.627 2745H788.781V2724.2L793.681 2718.62L811.536 2745H832.8L807.275 2707.88L831.565 2679.55H810.727L789.761 2704.39H788.781V2657.73H770.627V2745ZM840.471 2745H858.624V2679.55H840.471V2745ZM849.59 2671.11C855.002 2671.11 859.434 2666.97 859.434 2661.9C859.434 2656.88 855.002 2652.74 849.59 2652.74C844.221 2652.74 839.789 2656.88 839.789 2661.9C839.789 2666.97 844.221 2671.11 849.59 2671.11ZM891.32 2707.16C891.362 2698.72 896.391 2693.78 903.72 2693.78C911.007 2693.78 915.396 2698.55 915.354 2706.56V2745H933.507V2703.32C933.507 2688.07 924.558 2678.69 910.922 2678.69C901.206 2678.69 894.175 2683.47 891.234 2691.09H890.467V2679.55H873.166V2745H891.32V2707.16ZM977.303 2770.91C996.011 2770.91 1009.31 2762.39 1009.31 2745.64V2679.55H991.281V2690.54H990.599C988.17 2685.21 982.843 2678.69 971.891 2678.69C957.531 2678.69 945.386 2689.86 945.386 2712.14C945.386 2733.92 957.19 2744.06 971.934 2744.06C982.374 2744.06 988.212 2738.82 990.599 2733.41H991.366V2745.38C991.366 2754.38 985.613 2757.87 977.729 2757.87C969.718 2757.87 965.67 2754.38 964.178 2750.41L947.388 2752.67C949.562 2762.98 959.661 2770.91 977.303 2770.91ZM977.687 2730.43C968.781 2730.43 963.923 2723.35 963.923 2712.06C963.923 2700.94 968.695 2693.14 977.687 2693.14C986.508 2693.14 991.451 2700.6 991.451 2712.06C991.451 2723.61 986.423 2730.43 977.687 2730.43ZM1081.1 2746.28C1100.96 2746.28 1113.32 2732.68 1113.32 2712.53C1113.32 2692.24 1100.96 2678.69 1081.1 2678.69C1061.24 2678.69 1048.88 2692.24 1048.88 2712.53C1048.88 2732.68 1061.24 2746.28 1081.1 2746.28ZM1081.18 2732.22C1072.02 2732.22 1067.34 2723.82 1067.34 2712.4C1067.34 2700.98 1072.02 2692.54 1081.18 2692.54C1090.18 2692.54 1094.86 2700.98 1094.86 2712.4C1094.86 2723.82 1090.18 2732.22 1081.18 2732.22ZM1160.32 2679.55H1147.32V2675.16C1147.32 2670.72 1149.11 2668.12 1154.44 2668.12C1156.61 2668.12 1158.83 2668.59 1160.28 2669.06L1163.47 2655.43C1161.21 2654.74 1156.23 2653.64 1150.64 2653.64C1138.33 2653.64 1129.17 2660.58 1129.17 2674.82V2679.55H1119.92V2693.18H1129.17V2745H1147.32V2693.18H1160.32V2679.55ZM1214.57 2745L1221.04 2725.1H1252.53L1259.01 2745H1278.78L1248.7 2657.73H1224.92L1194.79 2745H1214.57ZM1225.73 2710.7L1236.47 2677.67H1237.15L1247.89 2710.7H1225.73ZM1310.02 2746.07C1320.59 2746.07 1326.09 2739.97 1328.6 2734.52H1329.37V2745H1347.26V2657.73H1329.15V2690.54H1328.6C1326.17 2685.21 1320.93 2678.69 1309.98 2678.69C1295.62 2678.69 1283.47 2689.86 1283.47 2712.36C1283.47 2734.26 1295.11 2746.07 1310.02 2746.07ZM1315.77 2731.62C1306.87 2731.62 1302.01 2723.69 1302.01 2712.27C1302.01 2700.94 1306.78 2693.14 1315.77 2693.14C1324.59 2693.14 1329.54 2700.6 1329.54 2712.27C1329.54 2723.95 1324.51 2731.62 1315.77 2731.62ZM1391.76 2746.28C1411.62 2746.28 1423.98 2732.68 1423.98 2712.53C1423.98 2692.24 1411.62 2678.69 1391.76 2678.69C1371.91 2678.69 1359.55 2692.24 1359.55 2712.53C1359.55 2732.68 1371.91 2746.28 1391.76 2746.28ZM1391.85 2732.22C1382.69 2732.22 1378 2723.82 1378 2712.4C1378 2700.98 1382.69 2692.54 1391.85 2692.54C1400.84 2692.54 1405.53 2700.98 1405.53 2712.4C1405.53 2723.82 1400.84 2732.22 1391.85 2732.22ZM1435.78 2769.55H1453.94V2734.52H1454.49C1457 2739.97 1462.5 2746.07 1473.07 2746.07C1487.99 2746.07 1499.62 2734.26 1499.62 2712.36C1499.62 2689.86 1487.47 2678.69 1473.11 2678.69C1462.16 2678.69 1456.92 2685.21 1454.49 2690.54H1453.68V2679.55H1435.78V2769.55ZM1453.55 2712.27C1453.55 2700.6 1458.5 2693.14 1467.32 2693.14C1476.31 2693.14 1481.08 2700.94 1481.08 2712.27C1481.08 2723.69 1476.22 2731.62 1467.32 2731.62C1458.58 2731.62 1453.55 2723.95 1453.55 2712.27ZM1546.54 2679.55H1534.22V2663.86H1516.07V2679.55H1507.12V2693.18H1516.07V2727.27C1515.98 2740.1 1524.72 2746.45 1537.89 2745.89C1542.57 2745.72 1545.9 2744.79 1547.73 2744.19L1544.87 2730.68C1543.98 2730.85 1542.06 2731.28 1540.36 2731.28C1536.74 2731.28 1534.22 2729.91 1534.22 2724.89V2693.18H1546.54V2679.55ZM1558.36 2745H1576.51V2679.55H1558.36V2745ZM1567.48 2671.11C1572.89 2671.11 1577.32 2666.97 1577.32 2661.9C1577.32 2656.88 1572.89 2652.74 1567.48 2652.74C1562.11 2652.74 1557.68 2656.88 1557.68 2661.9C1557.68 2666.97 1562.11 2671.11 1567.48 2671.11ZM1620.63 2746.28C1640.49 2746.28 1652.85 2732.68 1652.85 2712.53C1652.85 2692.24 1640.49 2678.69 1620.63 2678.69C1600.77 2678.69 1588.41 2692.24 1588.41 2712.53C1588.41 2732.68 1600.77 2746.28 1620.63 2746.28ZM1620.72 2732.22C1611.55 2732.22 1606.87 2723.82 1606.87 2712.4C1606.87 2700.98 1611.55 2692.54 1620.72 2692.54C1629.71 2692.54 1634.39 2700.98 1634.39 2712.4C1634.39 2723.82 1629.71 2732.22 1620.72 2732.22ZM1682.8 2707.16C1682.85 2698.72 1687.88 2693.78 1695.2 2693.78C1702.49 2693.78 1706.88 2698.55 1706.84 2706.56V2745H1724.99V2703.32C1724.99 2688.07 1716.04 2678.69 1702.41 2678.69C1692.69 2678.69 1685.66 2683.47 1682.72 2691.09H1681.95V2679.55H1664.65V2745H1682.8V2707.16ZM1754.9 2718.84H1771.05V2717.39C1771.13 2709.08 1774.11 2705.2 1780.85 2701.15C1788.82 2696.42 1794.01 2690.16 1794.01 2680.14C1794.01 2665.23 1782 2656.53 1765.08 2656.53C1749.61 2656.53 1737 2664.63 1736.61 2681.68H1754C1754.26 2674.73 1759.41 2671.02 1765 2671.02C1770.75 2671.02 1775.39 2674.86 1775.39 2680.78C1775.39 2686.36 1771.34 2690.07 1766.1 2693.39C1758.94 2697.91 1754.94 2702.47 1754.9 2717.39V2718.84ZM1763.29 2746.11C1768.75 2746.11 1773.48 2741.55 1773.52 2735.88C1773.48 2730.3 1768.75 2725.74 1763.29 2725.74C1757.67 2725.74 1753.02 2730.3 1753.06 2735.88C1753.02 2741.55 1757.67 2746.11 1763.29 2746.11Z" fill="#2D3748"/>
</svg>
